ISO-10303-21;
HEADER;
FILE_DESCRIPTION(('FreeCAD Model'),'2;1');
FILE_NAME('Open CASCADE Shape Model','2026-09-02T13:21:28',(''),(''),
  'Open CASCADE STEP processor 7.8','FreeCAD','Unknown');
FILE_SCHEMA(('AUTOMOTIVE_DESIGN { 1 0 10303 214 1 1 1 1 }'));
ENDSEC;
DATA;
#1 = APPLICATION_PROTOCOL_DEFINITION('international standard',
  'automotive_design',2000,#2);
#2 = APPLICATION_CONTEXT(
  'core data for automotive mechanical design processes');
#3 = SHAPE_DEFINITION_REPRESENTATION(#4,#10);
#4 = PRODUCT_DEFINITION_SHAPE('','',#5);
#5 = PRODUCT_DEFINITION('design','',#6,#9);
#6 = PRODUCT_DEFINITION_FORMATION('','',#7);
#7 = PRODUCT('ExtrudedCutout005','ExtrudedCutout005','',(#8));
#8 = PRODUCT_CONTEXT('',#2,'mechanical');
#9 = PRODUCT_DEFINITION_CONTEXT('part definition',#2,'design');
#10 = ADVANCED_BREP_SHAPE_REPRESENTATION('',(#11,#15),#905);
#11 = AXIS2_PLACEMENT_3D('',#12,#13,#14);
#12 = CARTESIAN_POINT('',(0.,0.,0.));
#13 = DIRECTION('',(0.,0.,1.));
#14 = DIRECTION('',(1.,0.,-0.));
#15 = MANIFOLD_SOLID_BREP('',#16);
#16 = CLOSED_SHELL('',(#17,#57,#90,#143,#167,#213,#238,#263,#294,#311,
    #327,#343,#360,#384,#408,#441,#458,#483,#508,#539,#556,#580,#604,
    #637,#654,#679,#704,#735,#752,#798,#844,#861,#873,#889));
#17 = ADVANCED_FACE('',(#18),#52,.F.);
#18 = FACE_BOUND('',#19,.F.);
#19 = EDGE_LOOP('',(#20,#30,#38,#46));
#20 = ORIENTED_EDGE('',*,*,#21,.F.);
#21 = EDGE_CURVE('',#22,#24,#26,.T.);
#22 = VERTEX_POINT('',#23);
#23 = CARTESIAN_POINT('',(-10.,0.,0.));
#24 = VERTEX_POINT('',#25);
#25 = CARTESIAN_POINT('',(-10.,0.,5.));
#26 = LINE('',#27,#28);
#27 = CARTESIAN_POINT('',(-10.,0.,0.));
#28 = VECTOR('',#29,1.);
#29 = DIRECTION('',(0.,0.,1.));
#30 = ORIENTED_EDGE('',*,*,#31,.T.);
#31 = EDGE_CURVE('',#22,#32,#34,.T.);
#32 = VERTEX_POINT('',#33);
#33 = CARTESIAN_POINT('',(-10.,55.,0.));
#34 = LINE('',#35,#36);
#35 = CARTESIAN_POINT('',(-10.,0.,0.));
#36 = VECTOR('',#37,1.);
#37 = DIRECTION('',(0.,1.,0.));
#38 = ORIENTED_EDGE('',*,*,#39,.T.);
#39 = EDGE_CURVE('',#32,#40,#42,.T.);
#40 = VERTEX_POINT('',#41);
#41 = CARTESIAN_POINT('',(-10.,55.,5.));
#42 = LINE('',#43,#44);
#43 = CARTESIAN_POINT('',(-10.,55.,0.));
#44 = VECTOR('',#45,1.);
#45 = DIRECTION('',(0.,0.,1.));
#46 = ORIENTED_EDGE('',*,*,#47,.F.);
#47 = EDGE_CURVE('',#24,#40,#48,.T.);
#48 = LINE('',#49,#50);
#49 = CARTESIAN_POINT('',(-10.,0.,5.));
#50 = VECTOR('',#51,1.);
#51 = DIRECTION('',(0.,1.,0.));
#52 = PLANE('',#53);
#53 = AXIS2_PLACEMENT_3D('',#54,#55,#56);
#54 = CARTESIAN_POINT('',(-10.,0.,0.));
#55 = DIRECTION('',(1.,0.,0.));
#56 = DIRECTION('',(0.,0.,1.));
#57 = ADVANCED_FACE('',(#58),#85,.T.);
#58 = FACE_BOUND('',#59,.F.);
#59 = EDGE_LOOP('',(#60,#69,#77,#84));
#60 = ORIENTED_EDGE('',*,*,#61,.T.);
#61 = EDGE_CURVE('',#24,#62,#64,.T.);
#62 = VERTEX_POINT('',#63);
#63 = CARTESIAN_POINT('',(-10.,-1.367990177005,11.307296470503));
#64 = CIRCLE('',#65,3.302);
#65 = AXIS2_PLACEMENT_3D('',#66,#67,#68);
#66 = CARTESIAN_POINT('',(-10.,0.,8.302));
#67 = DIRECTION('',(-1.,-0.,-0.));
#68 = DIRECTION('',(0.,0.,-1.));
#69 = ORIENTED_EDGE('',*,*,#70,.T.);
#70 = EDGE_CURVE('',#62,#71,#73,.T.);
#71 = VERTEX_POINT('',#72);
#72 = CARTESIAN_POINT('',(-10.,-3.439447137946,15.858017958242));
#73 = LINE('',#74,#75);
#74 = CARTESIAN_POINT('',(-10.,-1.367990177005,11.307296470503));
#75 = VECTOR('',#76,1.);
#76 = DIRECTION('',(0.,-0.414291392188,0.910144297548));
#77 = ORIENTED_EDGE('',*,*,#78,.F.);
#78 = EDGE_CURVE('',#22,#71,#79,.T.);
#79 = CIRCLE('',#80,8.302);
#80 = AXIS2_PLACEMENT_3D('',#81,#82,#83);
#81 = CARTESIAN_POINT('',(-10.,0.,8.302));
#82 = DIRECTION('',(-1.,-0.,-0.));
#83 = DIRECTION('',(0.,0.,-1.));
#84 = ORIENTED_EDGE('',*,*,#21,.T.);
#85 = PLANE('',#86);
#86 = AXIS2_PLACEMENT_3D('',#87,#88,#89);
#87 = CARTESIAN_POINT('',(-10.,0.,8.302));
#88 = DIRECTION('',(-1.,-0.,-0.));
#89 = DIRECTION('',(0.,0.,-1.));
#90 = ADVANCED_FACE('',(#91,#116,#127),#138,.T.);
#91 = FACE_BOUND('',#92,.T.);
#92 = EDGE_LOOP('',(#93,#94,#102,#110));
#93 = ORIENTED_EDGE('',*,*,#47,.F.);
#94 = ORIENTED_EDGE('',*,*,#95,.T.);
#95 = EDGE_CURVE('',#24,#96,#98,.T.);
#96 = VERTEX_POINT('',#97);
#97 = CARTESIAN_POINT('',(10.,0.,5.));
#98 = LINE('',#99,#100);
#99 = CARTESIAN_POINT('',(-10.,0.,5.));
#100 = VECTOR('',#101,1.);
#101 = DIRECTION('',(1.,0.,0.));
#102 = ORIENTED_EDGE('',*,*,#103,.T.);
#103 = EDGE_CURVE('',#96,#104,#106,.T.);
#104 = VERTEX_POINT('',#105);
#105 = CARTESIAN_POINT('',(10.,55.,5.));
#106 = LINE('',#107,#108);
#107 = CARTESIAN_POINT('',(10.,0.,5.));
#108 = VECTOR('',#109,1.);
#109 = DIRECTION('',(0.,1.,0.));
#110 = ORIENTED_EDGE('',*,*,#111,.F.);
#111 = EDGE_CURVE('',#40,#104,#112,.T.);
#112 = LINE('',#113,#114);
#113 = CARTESIAN_POINT('',(-10.,55.,5.));
#114 = VECTOR('',#115,1.);
#115 = DIRECTION('',(1.,0.,0.));
#116 = FACE_BOUND('',#117,.T.);
#117 = EDGE_LOOP('',(#118));
#118 = ORIENTED_EDGE('',*,*,#119,.T.);
#119 = EDGE_CURVE('',#120,#120,#122,.T.);
#120 = VERTEX_POINT('',#121);
#121 = CARTESIAN_POINT('',(3.5,13.574600959222,5.));
#122 = CIRCLE('',#123,3.5);
#123 = AXIS2_PLACEMENT_3D('',#124,#125,#126);
#124 = CARTESIAN_POINT('',(0.,13.574600959222,5.));
#125 = DIRECTION('',(0.,0.,-1.));
#126 = DIRECTION('',(1.,0.,0.));
#127 = FACE_BOUND('',#128,.T.);
#128 = EDGE_LOOP('',(#129));
#129 = ORIENTED_EDGE('',*,*,#130,.T.);
#130 = EDGE_CURVE('',#131,#131,#133,.T.);
#131 = VERTEX_POINT('',#132);
#132 = CARTESIAN_POINT('',(3.5,36.418059976974,5.));
#133 = CIRCLE('',#134,3.5);
#134 = AXIS2_PLACEMENT_3D('',#135,#136,#137);
#135 = CARTESIAN_POINT('',(0.,36.418059976974,5.));
#136 = DIRECTION('',(0.,0.,-1.));
#137 = DIRECTION('',(1.,0.,0.));
#138 = PLANE('',#139);
#139 = AXIS2_PLACEMENT_3D('',#140,#141,#142);
#140 = CARTESIAN_POINT('',(-10.,0.,5.));
#141 = DIRECTION('',(0.,0.,1.));
#142 = DIRECTION('',(1.,0.,0.));
#143 = ADVANCED_FACE('',(#144),#162,.T.);
#144 = FACE_BOUND('',#145,.T.);
#145 = EDGE_LOOP('',(#146,#154,#155,#156));
#146 = ORIENTED_EDGE('',*,*,#147,.F.);
#147 = EDGE_CURVE('',#32,#148,#150,.T.);
#148 = VERTEX_POINT('',#149);
#149 = CARTESIAN_POINT('',(10.,55.,0.));
#150 = LINE('',#151,#152);
#151 = CARTESIAN_POINT('',(-10.,55.,0.));
#152 = VECTOR('',#153,1.);
#153 = DIRECTION('',(1.,0.,0.));
#154 = ORIENTED_EDGE('',*,*,#39,.T.);
#155 = ORIENTED_EDGE('',*,*,#111,.T.);
#156 = ORIENTED_EDGE('',*,*,#157,.F.);
#157 = EDGE_CURVE('',#148,#104,#158,.T.);
#158 = LINE('',#159,#160);
#159 = CARTESIAN_POINT('',(10.,55.,0.));
#160 = VECTOR('',#161,1.);
#161 = DIRECTION('',(0.,0.,1.));
#162 = PLANE('',#163);
#163 = AXIS2_PLACEMENT_3D('',#164,#165,#166);
#164 = CARTESIAN_POINT('',(-10.,55.,0.));
#165 = DIRECTION('',(0.,1.,0.));
#166 = DIRECTION('',(0.,0.,1.));
#167 = ADVANCED_FACE('',(#168,#186,#197),#208,.F.);
#168 = FACE_BOUND('',#169,.F.);
#169 = EDGE_LOOP('',(#170,#171,#179,#185));
#170 = ORIENTED_EDGE('',*,*,#31,.F.);
#171 = ORIENTED_EDGE('',*,*,#172,.T.);
#172 = EDGE_CURVE('',#22,#173,#175,.T.);
#173 = VERTEX_POINT('',#174);
#174 = CARTESIAN_POINT('',(10.,0.,0.));
#175 = LINE('',#176,#177);
#176 = CARTESIAN_POINT('',(-10.,0.,0.));
#177 = VECTOR('',#178,1.);
#178 = DIRECTION('',(1.,0.,0.));
#179 = ORIENTED_EDGE('',*,*,#180,.T.);
#180 = EDGE_CURVE('',#173,#148,#181,.T.);
#181 = LINE('',#182,#183);
#182 = CARTESIAN_POINT('',(10.,0.,0.));
#183 = VECTOR('',#184,1.);
#184 = DIRECTION('',(0.,1.,0.));
#185 = ORIENTED_EDGE('',*,*,#147,.F.);
#186 = FACE_BOUND('',#187,.F.);
#187 = EDGE_LOOP('',(#188));
#188 = ORIENTED_EDGE('',*,*,#189,.T.);
#189 = EDGE_CURVE('',#190,#190,#192,.T.);
#190 = VERTEX_POINT('',#191);
#191 = CARTESIAN_POINT('',(3.5,13.574600959222,0.));
#192 = CIRCLE('',#193,3.5);
#193 = AXIS2_PLACEMENT_3D('',#194,#195,#196);
#194 = CARTESIAN_POINT('',(0.,13.574600959222,0.));
#195 = DIRECTION('',(0.,0.,-1.));
#196 = DIRECTION('',(1.,0.,0.));
#197 = FACE_BOUND('',#198,.F.);
#198 = EDGE_LOOP('',(#199));
#199 = ORIENTED_EDGE('',*,*,#200,.T.);
#200 = EDGE_CURVE('',#201,#201,#203,.T.);
#201 = VERTEX_POINT('',#202);
#202 = CARTESIAN_POINT('',(3.5,36.418059976974,0.));
#203 = CIRCLE('',#204,3.5);
#204 = AXIS2_PLACEMENT_3D('',#205,#206,#207);
#205 = CARTESIAN_POINT('',(0.,36.418059976974,0.));
#206 = DIRECTION('',(0.,0.,-1.));
#207 = DIRECTION('',(1.,0.,0.));
#208 = PLANE('',#209);
#209 = AXIS2_PLACEMENT_3D('',#210,#211,#212);
#210 = CARTESIAN_POINT('',(-10.,0.,0.));
#211 = DIRECTION('',(0.,0.,1.));
#212 = DIRECTION('',(1.,0.,0.));
#213 = ADVANCED_FACE('',(#214),#233,.F.);
#214 = FACE_BOUND('',#215,.F.);
#215 = EDGE_LOOP('',(#216,#225,#231,#232));
#216 = ORIENTED_EDGE('',*,*,#217,.T.);
#217 = EDGE_CURVE('',#96,#218,#220,.T.);
#218 = VERTEX_POINT('',#219);
#219 = CARTESIAN_POINT('',(10.,-1.367990177005,11.307296470503));
#220 = CIRCLE('',#221,3.302);
#221 = AXIS2_PLACEMENT_3D('',#222,#223,#224);
#222 = CARTESIAN_POINT('',(10.,0.,8.302));
#223 = DIRECTION('',(-1.,-0.,-0.));
#224 = DIRECTION('',(0.,0.,-1.));
#225 = ORIENTED_EDGE('',*,*,#226,.T.);
#226 = EDGE_CURVE('',#218,#62,#227,.T.);
#227 = LINE('',#228,#229);
#228 = CARTESIAN_POINT('',(10.,-1.367990177005,11.307296470503));
#229 = VECTOR('',#230,1.);
#230 = DIRECTION('',(-1.,0.,-0.));
#231 = ORIENTED_EDGE('',*,*,#61,.F.);
#232 = ORIENTED_EDGE('',*,*,#95,.T.);
#233 = CYLINDRICAL_SURFACE('',#234,3.302);
#234 = AXIS2_PLACEMENT_3D('',#235,#236,#237);
#235 = CARTESIAN_POINT('',(10.,0.,8.302));
#236 = DIRECTION('',(-1.,-0.,-0.));
#237 = DIRECTION('',(0.,0.,-1.));
#238 = ADVANCED_FACE('',(#239),#258,.T.);
#239 = FACE_BOUND('',#240,.F.);
#240 = EDGE_LOOP('',(#241,#242,#250,#257));
#241 = ORIENTED_EDGE('',*,*,#78,.T.);
#242 = ORIENTED_EDGE('',*,*,#243,.T.);
#243 = EDGE_CURVE('',#71,#244,#246,.T.);
#244 = VERTEX_POINT('',#245);
#245 = CARTESIAN_POINT('',(10.,-3.439447137946,15.858017958242));
#246 = LINE('',#247,#248);
#247 = CARTESIAN_POINT('',(-10.,-3.439447137946,15.858017958242));
#248 = VECTOR('',#249,1.);
#249 = DIRECTION('',(1.,0.,0.));
#250 = ORIENTED_EDGE('',*,*,#251,.F.);
#251 = EDGE_CURVE('',#173,#244,#252,.T.);
#252 = CIRCLE('',#253,8.302);
#253 = AXIS2_PLACEMENT_3D('',#254,#255,#256);
#254 = CARTESIAN_POINT('',(10.,0.,8.302));
#255 = DIRECTION('',(-1.,-0.,-0.));
#256 = DIRECTION('',(0.,0.,-1.));
#257 = ORIENTED_EDGE('',*,*,#172,.F.);
#258 = CYLINDRICAL_SURFACE('',#259,8.302);
#259 = AXIS2_PLACEMENT_3D('',#260,#261,#262);
#260 = CARTESIAN_POINT('',(-10.,0.,8.302));
#261 = DIRECTION('',(1.,0.,0.));
#262 = DIRECTION('',(0.,0.,-1.));
#263 = ADVANCED_FACE('',(#264),#289,.T.);
#264 = FACE_BOUND('',#265,.T.);
#265 = EDGE_LOOP('',(#266,#267,#275,#283));
#266 = ORIENTED_EDGE('',*,*,#70,.T.);
#267 = ORIENTED_EDGE('',*,*,#268,.T.);
#268 = EDGE_CURVE('',#71,#269,#271,.T.);
#269 = VERTEX_POINT('',#270);
#270 = CARTESIAN_POINT('',(-10.,108.05322931165,66.608713501295));
#271 = LINE('',#272,#273);
#272 = CARTESIAN_POINT('',(-10.,-3.439447137946,15.858017958242));
#273 = VECTOR('',#274,1.);
#274 = DIRECTION('',(0.,0.910144297548,0.414291392188));
#275 = ORIENTED_EDGE('',*,*,#276,.F.);
#276 = EDGE_CURVE('',#277,#269,#279,.T.);
#277 = VERTEX_POINT('',#278);
#278 = CARTESIAN_POINT('',(-10.,110.1246862726,62.057992013556));
#279 = LINE('',#280,#281);
#280 = CARTESIAN_POINT('',(-10.,110.1246862726,62.057992013556));
#281 = VECTOR('',#282,1.);
#282 = DIRECTION('',(0.,-0.414291392188,0.910144297548));
#283 = ORIENTED_EDGE('',*,*,#284,.F.);
#284 = EDGE_CURVE('',#62,#277,#285,.T.);
#285 = LINE('',#286,#287);
#286 = CARTESIAN_POINT('',(-10.,-1.367990177005,11.307296470503));
#287 = VECTOR('',#288,1.);
#288 = DIRECTION('',(0.,0.910144297548,0.414291392188));
#289 = PLANE('',#290);
#290 = AXIS2_PLACEMENT_3D('',#291,#292,#293);
#291 = CARTESIAN_POINT('',(-10.,-1.367990177005,11.307296470503));
#292 = DIRECTION('',(-1.,0.,0.));
#293 = DIRECTION('',(0.,0.910144297548,0.414291392188));
#294 = ADVANCED_FACE('',(#295),#306,.T.);
#295 = FACE_BOUND('',#296,.T.);
#296 = EDGE_LOOP('',(#297,#303,#304,#305));
#297 = ORIENTED_EDGE('',*,*,#298,.F.);
#298 = EDGE_CURVE('',#173,#96,#299,.T.);
#299 = LINE('',#300,#301);
#300 = CARTESIAN_POINT('',(10.,0.,0.));
#301 = VECTOR('',#302,1.);
#302 = DIRECTION('',(0.,0.,1.));
#303 = ORIENTED_EDGE('',*,*,#180,.T.);
#304 = ORIENTED_EDGE('',*,*,#157,.T.);
#305 = ORIENTED_EDGE('',*,*,#103,.F.);
#306 = PLANE('',#307);
#307 = AXIS2_PLACEMENT_3D('',#308,#309,#310);
#308 = CARTESIAN_POINT('',(10.,0.,0.));
#309 = DIRECTION('',(1.,0.,0.));
#310 = DIRECTION('',(0.,0.,1.));
#311 = ADVANCED_FACE('',(#312),#322,.F.);
#312 = FACE_BOUND('',#313,.T.);
#313 = EDGE_LOOP('',(#314,#315,#320,#321));
#314 = ORIENTED_EDGE('',*,*,#119,.F.);
#315 = ORIENTED_EDGE('',*,*,#316,.T.);
#316 = EDGE_CURVE('',#120,#190,#317,.T.);
#317 = B_SPLINE_CURVE_WITH_KNOTS('',1,(#318,#319),.UNSPECIFIED.,.F.,.F.,
  (2,2),(0.,1.),.PIECEWISE_BEZIER_KNOTS.);
#318 = CARTESIAN_POINT('',(3.5,13.574600959222,5.));
#319 = CARTESIAN_POINT('',(3.5,13.574600959222,0.));
#320 = ORIENTED_EDGE('',*,*,#189,.T.);
#321 = ORIENTED_EDGE('',*,*,#316,.F.);
#322 = CYLINDRICAL_SURFACE('',#323,3.5);
#323 = AXIS2_PLACEMENT_3D('',#324,#325,#326);
#324 = CARTESIAN_POINT('',(0.,13.574600959222,5.));
#325 = DIRECTION('',(0.,0.,-1.));
#326 = DIRECTION('',(1.,0.,0.));
#327 = ADVANCED_FACE('',(#328),#338,.F.);
#328 = FACE_BOUND('',#329,.T.);
#329 = EDGE_LOOP('',(#330,#331,#336,#337));
#330 = ORIENTED_EDGE('',*,*,#130,.F.);
#331 = ORIENTED_EDGE('',*,*,#332,.T.);
#332 = EDGE_CURVE('',#131,#201,#333,.T.);
#333 = B_SPLINE_CURVE_WITH_KNOTS('',1,(#334,#335),.UNSPECIFIED.,.F.,.F.,
  (2,2),(0.,1.),.PIECEWISE_BEZIER_KNOTS.);
#334 = CARTESIAN_POINT('',(3.5,36.418059976974,5.));
#335 = CARTESIAN_POINT('',(3.5,36.418059976974,0.));
#336 = ORIENTED_EDGE('',*,*,#200,.T.);
#337 = ORIENTED_EDGE('',*,*,#332,.F.);
#338 = CYLINDRICAL_SURFACE('',#339,3.5);
#339 = AXIS2_PLACEMENT_3D('',#340,#341,#342);
#340 = CARTESIAN_POINT('',(0.,36.418059976974,5.));
#341 = DIRECTION('',(0.,0.,-1.));
#342 = DIRECTION('',(1.,0.,0.));
#343 = ADVANCED_FACE('',(#344),#355,.F.);
#344 = FACE_BOUND('',#345,.F.);
#345 = EDGE_LOOP('',(#346,#347,#353,#354));
#346 = ORIENTED_EDGE('',*,*,#251,.T.);
#347 = ORIENTED_EDGE('',*,*,#348,.T.);
#348 = EDGE_CURVE('',#244,#218,#349,.T.);
#349 = LINE('',#350,#351);
#350 = CARTESIAN_POINT('',(10.,-3.439447137946,15.858017958242));
#351 = VECTOR('',#352,1.);
#352 = DIRECTION('',(0.,0.414291392188,-0.910144297548));
#353 = ORIENTED_EDGE('',*,*,#217,.F.);
#354 = ORIENTED_EDGE('',*,*,#298,.F.);
#355 = PLANE('',#356);
#356 = AXIS2_PLACEMENT_3D('',#357,#358,#359);
#357 = CARTESIAN_POINT('',(10.,0.,8.302));
#358 = DIRECTION('',(-1.,-0.,-0.));
#359 = DIRECTION('',(0.,0.,-1.));
#360 = ADVANCED_FACE('',(#361),#379,.T.);
#361 = FACE_BOUND('',#362,.T.);
#362 = EDGE_LOOP('',(#363,#364,#365,#373));
#363 = ORIENTED_EDGE('',*,*,#226,.T.);
#364 = ORIENTED_EDGE('',*,*,#284,.T.);
#365 = ORIENTED_EDGE('',*,*,#366,.T.);
#366 = EDGE_CURVE('',#277,#367,#369,.T.);
#367 = VERTEX_POINT('',#368);
#368 = CARTESIAN_POINT('',(10.,110.1246862726,62.057992013556));
#369 = LINE('',#370,#371);
#370 = CARTESIAN_POINT('',(-10.,110.1246862726,62.057992013556));
#371 = VECTOR('',#372,1.);
#372 = DIRECTION('',(1.,0.,0.));
#373 = ORIENTED_EDGE('',*,*,#374,.T.);
#374 = EDGE_CURVE('',#367,#218,#375,.T.);
#375 = LINE('',#376,#377);
#376 = CARTESIAN_POINT('',(10.,110.1246862726,62.057992013556));
#377 = VECTOR('',#378,1.);
#378 = DIRECTION('',(0.,-0.910144297548,-0.414291392188));
#379 = PLANE('',#380);
#380 = AXIS2_PLACEMENT_3D('',#381,#382,#383);
#381 = CARTESIAN_POINT('',(0.,54.378348047797,36.682644242029));
#382 = DIRECTION('',(0.,0.414291392188,-0.910144297548));
#383 = DIRECTION('',(1.,0.,0.));
#384 = ADVANCED_FACE('',(#385),#403,.F.);
#385 = FACE_BOUND('',#386,.F.);
#386 = EDGE_LOOP('',(#387,#388,#389,#397));
#387 = ORIENTED_EDGE('',*,*,#243,.F.);
#388 = ORIENTED_EDGE('',*,*,#268,.T.);
#389 = ORIENTED_EDGE('',*,*,#390,.T.);
#390 = EDGE_CURVE('',#269,#391,#393,.T.);
#391 = VERTEX_POINT('',#392);
#392 = CARTESIAN_POINT('',(10.,108.05322931165,66.608713501295));
#393 = LINE('',#394,#395);
#394 = CARTESIAN_POINT('',(-10.,108.05322931165,66.608713501295));
#395 = VECTOR('',#396,1.);
#396 = DIRECTION('',(1.,0.,0.));
#397 = ORIENTED_EDGE('',*,*,#398,.T.);
#398 = EDGE_CURVE('',#391,#244,#399,.T.);
#399 = LINE('',#400,#401);
#400 = CARTESIAN_POINT('',(10.,108.05322931165,66.608713501295));
#401 = VECTOR('',#402,1.);
#402 = DIRECTION('',(0.,-0.910144297548,-0.414291392188));
#403 = PLANE('',#404);
#404 = AXIS2_PLACEMENT_3D('',#405,#406,#407);
#405 = CARTESIAN_POINT('',(0.,52.306891086856,41.233365729768));
#406 = DIRECTION('',(0.,0.414291392188,-0.910144297548));
#407 = DIRECTION('',(1.,0.,0.));
#408 = ADVANCED_FACE('',(#409),#436,.T.);
#409 = FACE_BOUND('',#410,.F.);
#410 = EDGE_LOOP('',(#411,#420,#428,#435));
#411 = ORIENTED_EDGE('',*,*,#412,.T.);
#412 = EDGE_CURVE('',#277,#413,#415,.T.);
#413 = VERTEX_POINT('',#414);
#414 = CARTESIAN_POINT('',(-10.,114.79467516194,59.049779426374));
#415 = CIRCLE('',#416,3.302);
#416 = AXIS2_PLACEMENT_3D('',#417,#418,#419);
#417 = CARTESIAN_POINT('',(-10.,111.4926764496,59.052695543053));
#418 = DIRECTION('',(-1.,0.,0.));
#419 = DIRECTION('',(0.,-0.414291392188,0.910144297548));
#420 = ORIENTED_EDGE('',*,*,#421,.T.);
#421 = EDGE_CURVE('',#413,#422,#424,.T.);
#422 = VERTEX_POINT('',#423);
#423 = CARTESIAN_POINT('',(-10.,119.79467321211,59.04536374394));
#424 = LINE('',#425,#426);
#425 = CARTESIAN_POINT('',(-10.,114.79467516194,59.049779426374));
#426 = VECTOR('',#427,1.);
#427 = DIRECTION('',(0.,0.999999610035,-8.831364867128E-04));
#428 = ORIENTED_EDGE('',*,*,#429,.F.);
#429 = EDGE_CURVE('',#269,#422,#430,.T.);
#430 = CIRCLE('',#431,8.302);
#431 = AXIS2_PLACEMENT_3D('',#432,#433,#434);
#432 = CARTESIAN_POINT('',(-10.,111.4926764496,59.052695543053));
#433 = DIRECTION('',(-1.,0.,0.));
#434 = DIRECTION('',(0.,-0.414291392188,0.910144297548));
#435 = ORIENTED_EDGE('',*,*,#276,.F.);
#436 = PLANE('',#437);
#437 = AXIS2_PLACEMENT_3D('',#438,#439,#440);
#438 = CARTESIAN_POINT('',(-10.,111.4926764496,59.052695543053));
#439 = DIRECTION('',(-1.,-0.,-0.));
#440 = DIRECTION('',(0.,-0.414291392188,0.910144297548));
#441 = ADVANCED_FACE('',(#442),#453,.T.);
#442 = FACE_BOUND('',#443,.T.);
#443 = EDGE_LOOP('',(#444,#450,#451,#452));
#444 = ORIENTED_EDGE('',*,*,#445,.T.);
#445 = EDGE_CURVE('',#367,#391,#446,.T.);
#446 = LINE('',#447,#448);
#447 = CARTESIAN_POINT('',(10.,110.1246862726,62.057992013556));
#448 = VECTOR('',#449,1.);
#449 = DIRECTION('',(0.,-0.414291392188,0.910144297548));
#450 = ORIENTED_EDGE('',*,*,#398,.T.);
#451 = ORIENTED_EDGE('',*,*,#348,.T.);
#452 = ORIENTED_EDGE('',*,*,#374,.F.);
#453 = PLANE('',#454);
#454 = AXIS2_PLACEMENT_3D('',#455,#456,#457);
#455 = CARTESIAN_POINT('',(10.,110.1246862726,62.057992013556));
#456 = DIRECTION('',(1.,0.,0.));
#457 = DIRECTION('',(0.,-0.910144297548,-0.414291392188));
#458 = ADVANCED_FACE('',(#459),#478,.F.);
#459 = FACE_BOUND('',#460,.F.);
#460 = EDGE_LOOP('',(#461,#470,#476,#477));
#461 = ORIENTED_EDGE('',*,*,#462,.T.);
#462 = EDGE_CURVE('',#367,#463,#465,.T.);
#463 = VERTEX_POINT('',#464);
#464 = CARTESIAN_POINT('',(10.,114.79467516194,59.049779426374));
#465 = CIRCLE('',#466,3.302);
#466 = AXIS2_PLACEMENT_3D('',#467,#468,#469);
#467 = CARTESIAN_POINT('',(10.,111.4926764496,59.052695543053));
#468 = DIRECTION('',(-1.,0.,0.));
#469 = DIRECTION('',(0.,-0.414291392188,0.910144297548));
#470 = ORIENTED_EDGE('',*,*,#471,.T.);
#471 = EDGE_CURVE('',#463,#413,#472,.T.);
#472 = LINE('',#473,#474);
#473 = CARTESIAN_POINT('',(10.,114.79467516194,59.049779426374));
#474 = VECTOR('',#475,1.);
#475 = DIRECTION('',(-1.,0.,-0.));
#476 = ORIENTED_EDGE('',*,*,#412,.F.);
#477 = ORIENTED_EDGE('',*,*,#366,.T.);
#478 = CYLINDRICAL_SURFACE('',#479,3.302);
#479 = AXIS2_PLACEMENT_3D('',#480,#481,#482);
#480 = CARTESIAN_POINT('',(10.,111.4926764496,59.052695543053));
#481 = DIRECTION('',(-1.,-0.,-0.));
#482 = DIRECTION('',(0.,-0.414291392188,0.910144297548));
#483 = ADVANCED_FACE('',(#484),#503,.T.);
#484 = FACE_BOUND('',#485,.F.);
#485 = EDGE_LOOP('',(#486,#487,#495,#502));
#486 = ORIENTED_EDGE('',*,*,#429,.T.);
#487 = ORIENTED_EDGE('',*,*,#488,.T.);
#488 = EDGE_CURVE('',#422,#489,#491,.T.);
#489 = VERTEX_POINT('',#490);
#490 = CARTESIAN_POINT('',(10.,119.79467321211,59.04536374394));
#491 = LINE('',#492,#493);
#492 = CARTESIAN_POINT('',(-10.,119.79467321211,59.04536374394));
#493 = VECTOR('',#494,1.);
#494 = DIRECTION('',(1.,0.,0.));
#495 = ORIENTED_EDGE('',*,*,#496,.F.);
#496 = EDGE_CURVE('',#391,#489,#497,.T.);
#497 = CIRCLE('',#498,8.302);
#498 = AXIS2_PLACEMENT_3D('',#499,#500,#501);
#499 = CARTESIAN_POINT('',(10.,111.4926764496,59.052695543053));
#500 = DIRECTION('',(-1.,0.,0.));
#501 = DIRECTION('',(0.,-0.414291392188,0.910144297548));
#502 = ORIENTED_EDGE('',*,*,#390,.F.);
#503 = CYLINDRICAL_SURFACE('',#504,8.302);
#504 = AXIS2_PLACEMENT_3D('',#505,#506,#507);
#505 = CARTESIAN_POINT('',(-10.,111.4926764496,59.052695543053));
#506 = DIRECTION('',(1.,0.,0.));
#507 = DIRECTION('',(0.,-0.414291392188,0.910144297548));
#508 = ADVANCED_FACE('',(#509),#534,.T.);
#509 = FACE_BOUND('',#510,.T.);
#510 = EDGE_LOOP('',(#511,#512,#520,#528));
#511 = ORIENTED_EDGE('',*,*,#421,.T.);
#512 = ORIENTED_EDGE('',*,*,#513,.T.);
#513 = EDGE_CURVE('',#422,#514,#516,.T.);
#514 = VERTEX_POINT('',#515);
#515 = CARTESIAN_POINT('',(-10.,119.75007481953,8.545383437178));
#516 = LINE('',#517,#518);
#517 = CARTESIAN_POINT('',(-10.,119.79467321211,59.04536374394));
#518 = VECTOR('',#519,1.);
#519 = DIRECTION('',(0.,-8.831364867113E-04,-0.999999610035));
#520 = ORIENTED_EDGE('',*,*,#521,.F.);
#521 = EDGE_CURVE('',#522,#514,#524,.T.);
#522 = VERTEX_POINT('',#523);
#523 = CARTESIAN_POINT('',(-10.,114.75007676936,8.549799119612));
#524 = LINE('',#525,#526);
#525 = CARTESIAN_POINT('',(-10.,114.75007676936,8.549799119612));
#526 = VECTOR('',#527,1.);
#527 = DIRECTION('',(0.,0.999999610035,-8.831364867128E-04));
#528 = ORIENTED_EDGE('',*,*,#529,.F.);
#529 = EDGE_CURVE('',#413,#522,#530,.T.);
#530 = LINE('',#531,#532);
#531 = CARTESIAN_POINT('',(-10.,114.79467516194,59.049779426374));
#532 = VECTOR('',#533,1.);
#533 = DIRECTION('',(0.,-8.831364867113E-04,-0.999999610035));
#534 = PLANE('',#535);
#535 = AXIS2_PLACEMENT_3D('',#536,#537,#538);
#536 = CARTESIAN_POINT('',(-10.,114.79467516194,59.049779426374));
#537 = DIRECTION('',(-1.,0.,-0.));
#538 = DIRECTION('',(0.,-8.831364867113E-04,-0.999999610035));
#539 = ADVANCED_FACE('',(#540),#551,.F.);
#540 = FACE_BOUND('',#541,.F.);
#541 = EDGE_LOOP('',(#542,#543,#549,#550));
#542 = ORIENTED_EDGE('',*,*,#496,.T.);
#543 = ORIENTED_EDGE('',*,*,#544,.T.);
#544 = EDGE_CURVE('',#489,#463,#545,.T.);
#545 = LINE('',#546,#547);
#546 = CARTESIAN_POINT('',(10.,119.79467321211,59.04536374394));
#547 = VECTOR('',#548,1.);
#548 = DIRECTION('',(0.,-0.999999610035,8.831364867128E-04));
#549 = ORIENTED_EDGE('',*,*,#462,.F.);
#550 = ORIENTED_EDGE('',*,*,#445,.T.);
#551 = PLANE('',#552);
#552 = AXIS2_PLACEMENT_3D('',#553,#554,#555);
#553 = CARTESIAN_POINT('',(10.,111.4926764496,59.052695543053));
#554 = DIRECTION('',(-1.,-0.,-0.));
#555 = DIRECTION('',(0.,-0.414291392188,0.910144297548));
#556 = ADVANCED_FACE('',(#557),#575,.T.);
#557 = FACE_BOUND('',#558,.T.);
#558 = EDGE_LOOP('',(#559,#560,#561,#569));
#559 = ORIENTED_EDGE('',*,*,#471,.T.);
#560 = ORIENTED_EDGE('',*,*,#529,.T.);
#561 = ORIENTED_EDGE('',*,*,#562,.T.);
#562 = EDGE_CURVE('',#522,#563,#565,.T.);
#563 = VERTEX_POINT('',#564);
#564 = CARTESIAN_POINT('',(10.,114.75007676936,8.549799119612));
#565 = LINE('',#566,#567);
#566 = CARTESIAN_POINT('',(-10.,114.75007676936,8.549799119612));
#567 = VECTOR('',#568,1.);
#568 = DIRECTION('',(1.,0.,0.));
#569 = ORIENTED_EDGE('',*,*,#570,.T.);
#570 = EDGE_CURVE('',#563,#463,#571,.T.);
#571 = LINE('',#572,#573);
#572 = CARTESIAN_POINT('',(10.,114.75007676936,8.549799119612));
#573 = VECTOR('',#574,1.);
#574 = DIRECTION('',(0.,8.831364867113E-04,0.999999610035));
#575 = PLANE('',#576);
#576 = AXIS2_PLACEMENT_3D('',#577,#578,#579);
#577 = CARTESIAN_POINT('',(0.,114.77237596565,33.799789272993));
#578 = DIRECTION('',(0.,-0.999999610035,8.831364867115E-04));
#579 = DIRECTION('',(0.,8.831364867115E-04,0.999999610035));
#580 = ADVANCED_FACE('',(#581),#599,.F.);
#581 = FACE_BOUND('',#582,.F.);
#582 = EDGE_LOOP('',(#583,#584,#585,#593));
#583 = ORIENTED_EDGE('',*,*,#488,.F.);
#584 = ORIENTED_EDGE('',*,*,#513,.T.);
#585 = ORIENTED_EDGE('',*,*,#586,.T.);
#586 = EDGE_CURVE('',#514,#587,#589,.T.);
#587 = VERTEX_POINT('',#588);
#588 = CARTESIAN_POINT('',(10.,119.75007481953,8.545383437178));
#589 = LINE('',#590,#591);
#590 = CARTESIAN_POINT('',(-10.,119.75007481953,8.545383437178));
#591 = VECTOR('',#592,1.);
#592 = DIRECTION('',(1.,0.,0.));
#593 = ORIENTED_EDGE('',*,*,#594,.T.);
#594 = EDGE_CURVE('',#587,#489,#595,.T.);
#595 = LINE('',#596,#597);
#596 = CARTESIAN_POINT('',(10.,119.75007481953,8.545383437178));
#597 = VECTOR('',#598,1.);
#598 = DIRECTION('',(0.,8.831364867113E-04,0.999999610035));
#599 = PLANE('',#600);
#600 = AXIS2_PLACEMENT_3D('',#601,#602,#603);
#601 = CARTESIAN_POINT('',(0.,119.77237401582,33.795373590559));
#602 = DIRECTION('',(0.,-0.999999610035,8.831364867115E-04));
#603 = DIRECTION('',(0.,8.831364867115E-04,0.999999610035));
#604 = ADVANCED_FACE('',(#605),#632,.T.);
#605 = FACE_BOUND('',#606,.F.);
#606 = EDGE_LOOP('',(#607,#616,#624,#631));
#607 = ORIENTED_EDGE('',*,*,#608,.T.);
#608 = EDGE_CURVE('',#522,#609,#611,.T.);
#609 = VERTEX_POINT('',#610);
#610 = CARTESIAN_POINT('',(-10.,111.44516194034,5.250716523956));
#611 = CIRCLE('',#612,3.302);
#612 = AXIS2_PLACEMENT_3D('',#613,#614,#615);
#613 = CARTESIAN_POINT('',(-10.,111.44807805702,8.552715236291));
#614 = DIRECTION('',(-1.,0.,-0.));
#615 = DIRECTION('',(0.,0.999999610035,-8.83136486715E-04));
#616 = ORIENTED_EDGE('',*,*,#617,.T.);
#617 = EDGE_CURVE('',#609,#618,#620,.T.);
#618 = VERTEX_POINT('',#619);
#619 = CARTESIAN_POINT('',(-10.,111.44074625791,0.250718473781));
#620 = LINE('',#621,#622);
#621 = CARTESIAN_POINT('',(-10.,111.44516194034,5.250716523956));
#622 = VECTOR('',#623,1.);
#623 = DIRECTION('',(0.,-8.831364867148E-04,-0.999999610035));
#624 = ORIENTED_EDGE('',*,*,#625,.F.);
#625 = EDGE_CURVE('',#514,#618,#626,.T.);
#626 = CIRCLE('',#627,8.302);
#627 = AXIS2_PLACEMENT_3D('',#628,#629,#630);
#628 = CARTESIAN_POINT('',(-10.,111.44807805702,8.552715236291));
#629 = DIRECTION('',(-1.,0.,-0.));
#630 = DIRECTION('',(0.,0.999999610035,-8.831364867149E-04));
#631 = ORIENTED_EDGE('',*,*,#521,.F.);
#632 = PLANE('',#633);
#633 = AXIS2_PLACEMENT_3D('',#634,#635,#636);
#634 = CARTESIAN_POINT('',(-10.,111.44807805702,8.552715236291));
#635 = DIRECTION('',(-1.,-0.,-0.));
#636 = DIRECTION('',(0.,0.999999610035,-8.83136486715E-04));
#637 = ADVANCED_FACE('',(#638),#649,.T.);
#638 = FACE_BOUND('',#639,.T.);
#639 = EDGE_LOOP('',(#640,#646,#647,#648));
#640 = ORIENTED_EDGE('',*,*,#641,.T.);
#641 = EDGE_CURVE('',#563,#587,#642,.T.);
#642 = LINE('',#643,#644);
#643 = CARTESIAN_POINT('',(10.,114.75007676936,8.549799119612));
#644 = VECTOR('',#645,1.);
#645 = DIRECTION('',(0.,0.999999610035,-8.831364867128E-04));
#646 = ORIENTED_EDGE('',*,*,#594,.T.);
#647 = ORIENTED_EDGE('',*,*,#544,.T.);
#648 = ORIENTED_EDGE('',*,*,#570,.F.);
#649 = PLANE('',#650);
#650 = AXIS2_PLACEMENT_3D('',#651,#652,#653);
#651 = CARTESIAN_POINT('',(10.,114.75007676936,8.549799119612));
#652 = DIRECTION('',(1.,0.,0.));
#653 = DIRECTION('',(0.,8.831364867113E-04,0.999999610035));
#654 = ADVANCED_FACE('',(#655),#674,.F.);
#655 = FACE_BOUND('',#656,.F.);
#656 = EDGE_LOOP('',(#657,#666,#672,#673));
#657 = ORIENTED_EDGE('',*,*,#658,.T.);
#658 = EDGE_CURVE('',#563,#659,#661,.T.);
#659 = VERTEX_POINT('',#660);
#660 = CARTESIAN_POINT('',(10.,111.44516194034,5.250716523956));
#661 = CIRCLE('',#662,3.302);
#662 = AXIS2_PLACEMENT_3D('',#663,#664,#665);
#663 = CARTESIAN_POINT('',(10.,111.44807805702,8.552715236291));
#664 = DIRECTION('',(-1.,0.,-0.));
#665 = DIRECTION('',(0.,0.999999610035,-8.83136486715E-04));
#666 = ORIENTED_EDGE('',*,*,#667,.T.);
#667 = EDGE_CURVE('',#659,#609,#668,.T.);
#668 = LINE('',#669,#670);
#669 = CARTESIAN_POINT('',(10.,111.44516194034,5.250716523956));
#670 = VECTOR('',#671,1.);
#671 = DIRECTION('',(-1.,0.,0.));
#672 = ORIENTED_EDGE('',*,*,#608,.F.);
#673 = ORIENTED_EDGE('',*,*,#562,.T.);
#674 = CYLINDRICAL_SURFACE('',#675,3.302);
#675 = AXIS2_PLACEMENT_3D('',#676,#677,#678);
#676 = CARTESIAN_POINT('',(10.,111.44807805702,8.552715236291));
#677 = DIRECTION('',(-1.,-0.,-0.));
#678 = DIRECTION('',(0.,0.999999610035,-8.83136486715E-04));
#679 = ADVANCED_FACE('',(#680),#699,.T.);
#680 = FACE_BOUND('',#681,.F.);
#681 = EDGE_LOOP('',(#682,#683,#691,#698));
#682 = ORIENTED_EDGE('',*,*,#625,.T.);
#683 = ORIENTED_EDGE('',*,*,#684,.T.);
#684 = EDGE_CURVE('',#618,#685,#687,.T.);
#685 = VERTEX_POINT('',#686);
#686 = CARTESIAN_POINT('',(10.,111.44074625791,0.250718473781));
#687 = LINE('',#688,#689);
#688 = CARTESIAN_POINT('',(-10.,111.44074625791,0.250718473781));
#689 = VECTOR('',#690,1.);
#690 = DIRECTION('',(1.,0.,0.));
#691 = ORIENTED_EDGE('',*,*,#692,.F.);
#692 = EDGE_CURVE('',#587,#685,#693,.T.);
#693 = CIRCLE('',#694,8.302);
#694 = AXIS2_PLACEMENT_3D('',#695,#696,#697);
#695 = CARTESIAN_POINT('',(10.,111.44807805702,8.552715236291));
#696 = DIRECTION('',(-1.,0.,-0.));
#697 = DIRECTION('',(0.,0.999999610035,-8.831364867149E-04));
#698 = ORIENTED_EDGE('',*,*,#586,.F.);
#699 = CYLINDRICAL_SURFACE('',#700,8.302);
#700 = AXIS2_PLACEMENT_3D('',#701,#702,#703);
#701 = CARTESIAN_POINT('',(-10.,111.44807805702,8.552715236291));
#702 = DIRECTION('',(1.,0.,0.));
#703 = DIRECTION('',(0.,0.999999610035,-8.831364867149E-04));
#704 = ADVANCED_FACE('',(#705),#730,.T.);
#705 = FACE_BOUND('',#706,.T.);
#706 = EDGE_LOOP('',(#707,#708,#716,#724));
#707 = ORIENTED_EDGE('',*,*,#617,.T.);
#708 = ORIENTED_EDGE('',*,*,#709,.T.);
#709 = EDGE_CURVE('',#618,#710,#712,.T.);
#710 = VERTEX_POINT('',#711);
#711 = CARTESIAN_POINT('',(-10.,66.440763806343,0.290459615683));
#712 = LINE('',#713,#714);
#713 = CARTESIAN_POINT('',(-10.,111.44074625791,0.250718473781));
#714 = VECTOR('',#715,1.);
#715 = DIRECTION('',(0.,-0.999999610035,8.831364867129E-04));
#716 = ORIENTED_EDGE('',*,*,#717,.F.);
#717 = EDGE_CURVE('',#718,#710,#720,.T.);
#718 = VERTEX_POINT('',#719);
#719 = CARTESIAN_POINT('',(-10.,66.445179488777,5.290457665858));
#720 = LINE('',#721,#722);
#721 = CARTESIAN_POINT('',(-10.,66.445179488777,5.290457665858));
#722 = VECTOR('',#723,1.);
#723 = DIRECTION('',(0.,-8.831364867148E-04,-0.999999610035));
#724 = ORIENTED_EDGE('',*,*,#725,.F.);
#725 = EDGE_CURVE('',#609,#718,#726,.T.);
#726 = LINE('',#727,#728);
#727 = CARTESIAN_POINT('',(-10.,111.44516194034,5.250716523956));
#728 = VECTOR('',#729,1.);
#729 = DIRECTION('',(0.,-0.999999610035,8.831364867129E-04));
#730 = PLANE('',#731);
#731 = AXIS2_PLACEMENT_3D('',#732,#733,#734);
#732 = CARTESIAN_POINT('',(-10.,111.44516194034,5.250716523956));
#733 = DIRECTION('',(-1.,0.,-0.));
#734 = DIRECTION('',(0.,-0.999999610035,8.831364867129E-04));
#735 = ADVANCED_FACE('',(#736),#747,.F.);
#736 = FACE_BOUND('',#737,.F.);
#737 = EDGE_LOOP('',(#738,#739,#745,#746));
#738 = ORIENTED_EDGE('',*,*,#692,.T.);
#739 = ORIENTED_EDGE('',*,*,#740,.T.);
#740 = EDGE_CURVE('',#685,#659,#741,.T.);
#741 = LINE('',#742,#743);
#742 = CARTESIAN_POINT('',(10.,111.44074625791,0.250718473781));
#743 = VECTOR('',#744,1.);
#744 = DIRECTION('',(0.,8.831364867148E-04,0.999999610035));
#745 = ORIENTED_EDGE('',*,*,#658,.F.);
#746 = ORIENTED_EDGE('',*,*,#641,.T.);
#747 = PLANE('',#748);
#748 = AXIS2_PLACEMENT_3D('',#749,#750,#751);
#749 = CARTESIAN_POINT('',(10.,111.44807805702,8.552715236291));
#750 = DIRECTION('',(-1.,-0.,-0.));
#751 = DIRECTION('',(0.,0.999999610035,-8.831364867149E-04));
#752 = ADVANCED_FACE('',(#753,#771,#782),#793,.T.);
#753 = FACE_BOUND('',#754,.T.);
#754 = EDGE_LOOP('',(#755,#756,#757,#765));
#755 = ORIENTED_EDGE('',*,*,#667,.T.);
#756 = ORIENTED_EDGE('',*,*,#725,.T.);
#757 = ORIENTED_EDGE('',*,*,#758,.T.);
#758 = EDGE_CURVE('',#718,#759,#761,.T.);
#759 = VERTEX_POINT('',#760);
#760 = CARTESIAN_POINT('',(10.,66.445179488777,5.290457665858));
#761 = LINE('',#762,#763);
#762 = CARTESIAN_POINT('',(-10.,66.445179488777,5.290457665858));
#763 = VECTOR('',#764,1.);
#764 = DIRECTION('',(1.,0.,0.));
#765 = ORIENTED_EDGE('',*,*,#766,.T.);
#766 = EDGE_CURVE('',#759,#659,#767,.T.);
#767 = LINE('',#768,#769);
#768 = CARTESIAN_POINT('',(10.,66.445179488777,5.290457665858));
#769 = VECTOR('',#770,1.);
#770 = DIRECTION('',(0.,0.999999610035,-8.831364867129E-04));
#771 = FACE_BOUND('',#772,.T.);
#772 = EDGE_LOOP('',(#773));
#773 = ORIENTED_EDGE('',*,*,#774,.T.);
#774 = EDGE_CURVE('',#775,#775,#777,.T.);
#775 = VERTEX_POINT('',#776);
#776 = CARTESIAN_POINT('',(3.5,98.024714166528,5.262568615675));
#777 = CIRCLE('',#778,3.5);
#778 = AXIS2_PLACEMENT_3D('',#779,#780,#781);
#779 = CARTESIAN_POINT('',(0.,98.024714166528,5.262568615675));
#780 = DIRECTION('',(0.,-8.831364867129E-04,-0.999999610035));
#781 = DIRECTION('',(1.,0.,0.));
#782 = FACE_BOUND('',#783,.T.);
#783 = EDGE_LOOP('',(#784));
#784 = ORIENTED_EDGE('',*,*,#785,.T.);
#785 = EDGE_CURVE('',#786,#786,#788,.T.);
#786 = VERTEX_POINT('',#787);
#787 = CARTESIAN_POINT('',(3.5,79.429071308411,5.278991112781));
#788 = CIRCLE('',#789,3.5);
#789 = AXIS2_PLACEMENT_3D('',#790,#791,#792);
#790 = CARTESIAN_POINT('',(0.,79.429071308411,5.278991112781));
#791 = DIRECTION('',(0.,-8.831364867129E-04,-0.999999610035));
#792 = DIRECTION('',(1.,0.,0.));
#793 = PLANE('',#794);
#794 = AXIS2_PLACEMENT_3D('',#795,#796,#797);
#795 = CARTESIAN_POINT('',(0.,88.945170714562,5.270587094907));
#796 = DIRECTION('',(0.,8.831364867129E-04,0.999999610035));
#797 = DIRECTION('',(0.,-0.999999610035,8.831364867129E-04));
#798 = ADVANCED_FACE('',(#799,#817,#828),#839,.F.);
#799 = FACE_BOUND('',#800,.F.);
#800 = EDGE_LOOP('',(#801,#802,#803,#811));
#801 = ORIENTED_EDGE('',*,*,#684,.F.);
#802 = ORIENTED_EDGE('',*,*,#709,.T.);
#803 = ORIENTED_EDGE('',*,*,#804,.T.);
#804 = EDGE_CURVE('',#710,#805,#807,.T.);
#805 = VERTEX_POINT('',#806);
#806 = CARTESIAN_POINT('',(10.,66.440763806343,0.290459615683));
#807 = LINE('',#808,#809);
#808 = CARTESIAN_POINT('',(-10.,66.440763806343,0.290459615683));
#809 = VECTOR('',#810,1.);
#810 = DIRECTION('',(1.,0.,0.));
#811 = ORIENTED_EDGE('',*,*,#812,.T.);
#812 = EDGE_CURVE('',#805,#685,#813,.T.);
#813 = LINE('',#814,#815);
#814 = CARTESIAN_POINT('',(10.,66.440763806343,0.290459615683));
#815 = VECTOR('',#816,1.);
#816 = DIRECTION('',(0.,0.999999610035,-8.831364867129E-04));
#817 = FACE_BOUND('',#818,.F.);
#818 = EDGE_LOOP('',(#819));
#819 = ORIENTED_EDGE('',*,*,#820,.T.);
#820 = EDGE_CURVE('',#821,#821,#823,.T.);
#821 = VERTEX_POINT('',#822);
#822 = CARTESIAN_POINT('',(3.5,98.020298484095,0.2625705655));
#823 = CIRCLE('',#824,3.5);
#824 = AXIS2_PLACEMENT_3D('',#825,#826,#827);
#825 = CARTESIAN_POINT('',(0.,98.020298484095,0.2625705655));
#826 = DIRECTION('',(0.,-8.831364867129E-04,-0.999999610035));
#827 = DIRECTION('',(1.,0.,0.));
#828 = FACE_BOUND('',#829,.F.);
#829 = EDGE_LOOP('',(#830));
#830 = ORIENTED_EDGE('',*,*,#831,.T.);
#831 = EDGE_CURVE('',#832,#832,#834,.T.);
#832 = VERTEX_POINT('',#833);
#833 = CARTESIAN_POINT('',(3.5,79.424655625977,0.278993062606));
#834 = CIRCLE('',#835,3.5);
#835 = AXIS2_PLACEMENT_3D('',#836,#837,#838);
#836 = CARTESIAN_POINT('',(0.,79.424655625977,0.278993062606));
#837 = DIRECTION('',(0.,-8.831364867129E-04,-0.999999610035));
#838 = DIRECTION('',(1.,0.,0.));
#839 = PLANE('',#840);
#840 = AXIS2_PLACEMENT_3D('',#841,#842,#843);
#841 = CARTESIAN_POINT('',(0.,88.940755032128,0.270589044732));
#842 = DIRECTION('',(0.,8.831364867129E-04,0.999999610035));
#843 = DIRECTION('',(0.,-0.999999610035,8.831364867129E-04));
#844 = ADVANCED_FACE('',(#845),#856,.T.);
#845 = FACE_BOUND('',#846,.T.);
#846 = EDGE_LOOP('',(#847,#848,#849,#855));
#847 = ORIENTED_EDGE('',*,*,#717,.T.);
#848 = ORIENTED_EDGE('',*,*,#804,.T.);
#849 = ORIENTED_EDGE('',*,*,#850,.F.);
#850 = EDGE_CURVE('',#759,#805,#851,.T.);
#851 = LINE('',#852,#853);
#852 = CARTESIAN_POINT('',(10.,66.445179488777,5.290457665858));
#853 = VECTOR('',#854,1.);
#854 = DIRECTION('',(0.,-8.831364867148E-04,-0.999999610035));
#855 = ORIENTED_EDGE('',*,*,#758,.F.);
#856 = PLANE('',#857);
#857 = AXIS2_PLACEMENT_3D('',#858,#859,#860);
#858 = CARTESIAN_POINT('',(-10.,66.445179488777,5.290457665858));
#859 = DIRECTION('',(0.,-0.999999610035,8.831364867148E-04));
#860 = DIRECTION('',(1.,0.,0.));
#861 = ADVANCED_FACE('',(#862),#868,.T.);
#862 = FACE_BOUND('',#863,.T.);
#863 = EDGE_LOOP('',(#864,#865,#866,#867));
#864 = ORIENTED_EDGE('',*,*,#850,.T.);
#865 = ORIENTED_EDGE('',*,*,#812,.T.);
#866 = ORIENTED_EDGE('',*,*,#740,.T.);
#867 = ORIENTED_EDGE('',*,*,#766,.F.);
#868 = PLANE('',#869);
#869 = AXIS2_PLACEMENT_3D('',#870,#871,#872);
#870 = CARTESIAN_POINT('',(10.,66.445179488777,5.290457665858));
#871 = DIRECTION('',(1.,0.,0.));
#872 = DIRECTION('',(0.,0.999999610035,-8.831364867129E-04));
#873 = ADVANCED_FACE('',(#874),#884,.F.);
#874 = FACE_BOUND('',#875,.T.);
#875 = EDGE_LOOP('',(#876,#877,#882,#883));
#876 = ORIENTED_EDGE('',*,*,#774,.F.);
#877 = ORIENTED_EDGE('',*,*,#878,.T.);
#878 = EDGE_CURVE('',#775,#821,#879,.T.);
#879 = B_SPLINE_CURVE_WITH_KNOTS('',1,(#880,#881),.UNSPECIFIED.,.F.,.F.,
  (2,2),(0.,1.),.PIECEWISE_BEZIER_KNOTS.);
#880 = CARTESIAN_POINT('',(3.5,98.024714166528,5.262568615675));
#881 = CARTESIAN_POINT('',(3.5,98.020298484095,0.2625705655));
#882 = ORIENTED_EDGE('',*,*,#820,.T.);
#883 = ORIENTED_EDGE('',*,*,#878,.F.);
#884 = CYLINDRICAL_SURFACE('',#885,3.5);
#885 = AXIS2_PLACEMENT_3D('',#886,#887,#888);
#886 = CARTESIAN_POINT('',(0.,98.024714166528,5.262568615675));
#887 = DIRECTION('',(0.,-8.831364867129E-04,-0.999999610035));
#888 = DIRECTION('',(1.,0.,0.));
#889 = ADVANCED_FACE('',(#890),#900,.F.);
#890 = FACE_BOUND('',#891,.T.);
#891 = EDGE_LOOP('',(#892,#893,#898,#899));
#892 = ORIENTED_EDGE('',*,*,#785,.F.);
#893 = ORIENTED_EDGE('',*,*,#894,.T.);
#894 = EDGE_CURVE('',#786,#832,#895,.T.);
#895 = B_SPLINE_CURVE_WITH_KNOTS('',1,(#896,#897),.UNSPECIFIED.,.F.,.F.,
  (2,2),(0.,1.),.PIECEWISE_BEZIER_KNOTS.);
#896 = CARTESIAN_POINT('',(3.5,79.429071308411,5.278991112781));
#897 = CARTESIAN_POINT('',(3.5,79.424655625977,0.278993062606));
#898 = ORIENTED_EDGE('',*,*,#831,.T.);
#899 = ORIENTED_EDGE('',*,*,#894,.F.);
#900 = CYLINDRICAL_SURFACE('',#901,3.5);
#901 = AXIS2_PLACEMENT_3D('',#902,#903,#904);
#902 = CARTESIAN_POINT('',(0.,79.429071308411,5.278991112781));
#903 = DIRECTION('',(0.,-8.831364867129E-04,-0.999999610035));
#904 = DIRECTION('',(1.,0.,0.));
#905 = ( GEOMETRIC_REPRESENTATION_CONTEXT(3) 
GLOBAL_UNCERTAINTY_ASSIGNED_CONTEXT((#909)) GLOBAL_UNIT_ASSIGNED_CONTEXT
((#906,#907,#908)) REPRESENTATION_CONTEXT('Context #1',
  '3D Context with UNIT and UNCERTAINTY') );
#906 = ( LENGTH_UNIT() NAMED_UNIT(*) SI_UNIT(.MILLI.,.METRE.) );
#907 = ( NAMED_UNIT(*) PLANE_ANGLE_UNIT() SI_UNIT($,.RADIAN.) );
#908 = ( NAMED_UNIT(*) SI_UNIT($,.STERADIAN.) SOLID_ANGLE_UNIT() );
#909 = UNCERTAINTY_MEASURE_WITH_UNIT(LENGTH_MEASURE(1.E-07),#906,
  'distance_accuracy_value','confusion accuracy');
#910 = PRODUCT_RELATED_PRODUCT_CATEGORY('part',$,(#7));
#911 = MECHANICAL_DESIGN_GEOMETRIC_PRESENTATION_REPRESENTATION('',(#912)
  ,#905);
#912 = STYLED_ITEM('color',(#913),#15);
#913 = PRESENTATION_STYLE_ASSIGNMENT((#914,#920));
#914 = SURFACE_STYLE_USAGE(.BOTH.,#915);
#915 = SURFACE_SIDE_STYLE('',(#916));
#916 = SURFACE_STYLE_FILL_AREA(#917);
#917 = FILL_AREA_STYLE('',(#918));
#918 = FILL_AREA_STYLE_COLOUR('',#919);
#919 = COLOUR_RGB('',0.815686284108,0.298039221799,0.243137258719);
#920 = CURVE_STYLE('',#921,POSITIVE_LENGTH_MEASURE(0.1),#922);
#921 = DRAUGHTING_PRE_DEFINED_CURVE_FONT('continuous');
#922 = COLOUR_RGB('',9.803921802644E-02,9.803921802644E-02,
  9.803921802644E-02);
ENDSEC;
END-ISO-10303-21;
