ISO-10303-21;
HEADER;
FILE_DESCRIPTION(('FreeCAD Model'),'2;1');
FILE_NAME('Open CASCADE Shape Model','2026-09-02T10:50:12',(''),(''),
  'Open CASCADE STEP processor 7.8','FreeCAD','Unknown');
FILE_SCHEMA(('AUTOMOTIVE_DESIGN { 1 0 10303 214 1 1 1 1 }'));
ENDSEC;
DATA;
#1 = APPLICATION_PROTOCOL_DEFINITION('international standard',
  'automotive_design',2000,#2);
#2 = APPLICATION_CONTEXT(
  'core data for automotive mechanical design processes');
#3 = SHAPE_DEFINITION_REPRESENTATION(#4,#10);
#4 = PRODUCT_DEFINITION_SHAPE('','',#5);
#5 = PRODUCT_DEFINITION('design','',#6,#9);
#6 = PRODUCT_DEFINITION_FORMATION('','',#7);
#7 = PRODUCT('Body','Body','',(#8));
#8 = PRODUCT_CONTEXT('',#2,'mechanical');
#9 = PRODUCT_DEFINITION_CONTEXT('part definition',#2,'design');
#10 = ADVANCED_BREP_SHAPE_REPRESENTATION('',(#11,#15),#633);
#11 = AXIS2_PLACEMENT_3D('',#12,#13,#14);
#12 = CARTESIAN_POINT('',(0.,0.,0.));
#13 = DIRECTION('',(0.,0.,1.));
#14 = DIRECTION('',(1.,0.,-0.));
#15 = MANIFOLD_SOLID_BREP('',#16);
#16 = CLOSED_SHELL('',(#17,#57,#88,#123,#147,#175,#208,#233,#249,#274,
    #291,#322,#346,#370,#387,#420,#445,#470,#487,#518,#553,#577,#605,
    #617));
#17 = ADVANCED_FACE('',(#18),#52,.F.);
#18 = FACE_BOUND('',#19,.F.);
#19 = EDGE_LOOP('',(#20,#30,#38,#46));
#20 = ORIENTED_EDGE('',*,*,#21,.F.);
#21 = EDGE_CURVE('',#22,#24,#26,.T.);
#22 = VERTEX_POINT('',#23);
#23 = CARTESIAN_POINT('',(-10.,-10.,0.));
#24 = VERTEX_POINT('',#25);
#25 = CARTESIAN_POINT('',(-10.,-10.,4.7498));
#26 = LINE('',#27,#28);
#27 = CARTESIAN_POINT('',(-10.,-10.,0.));
#28 = VECTOR('',#29,1.);
#29 = DIRECTION('',(0.,0.,1.));
#30 = ORIENTED_EDGE('',*,*,#31,.T.);
#31 = EDGE_CURVE('',#22,#32,#34,.T.);
#32 = VERTEX_POINT('',#33);
#33 = CARTESIAN_POINT('',(-10.,10.,0.));
#34 = LINE('',#35,#36);
#35 = CARTESIAN_POINT('',(-10.,-10.,0.));
#36 = VECTOR('',#37,1.);
#37 = DIRECTION('',(0.,1.,0.));
#38 = ORIENTED_EDGE('',*,*,#39,.T.);
#39 = EDGE_CURVE('',#32,#40,#42,.T.);
#40 = VERTEX_POINT('',#41);
#41 = CARTESIAN_POINT('',(-10.,10.,4.7498));
#42 = LINE('',#43,#44);
#43 = CARTESIAN_POINT('',(-10.,10.,0.));
#44 = VECTOR('',#45,1.);
#45 = DIRECTION('',(0.,0.,1.));
#46 = ORIENTED_EDGE('',*,*,#47,.F.);
#47 = EDGE_CURVE('',#24,#40,#48,.T.);
#48 = LINE('',#49,#50);
#49 = CARTESIAN_POINT('',(-10.,-10.,4.7498));
#50 = VECTOR('',#51,1.);
#51 = DIRECTION('',(0.,1.,0.));
#52 = PLANE('',#53);
#53 = AXIS2_PLACEMENT_3D('',#54,#55,#56);
#54 = CARTESIAN_POINT('',(-10.,-10.,0.));
#55 = DIRECTION('',(1.,0.,0.));
#56 = DIRECTION('',(0.,0.,1.));
#57 = ADVANCED_FACE('',(#58),#83,.F.);
#58 = FACE_BOUND('',#59,.F.);
#59 = EDGE_LOOP('',(#60,#68,#69,#77));
#60 = ORIENTED_EDGE('',*,*,#61,.F.);
#61 = EDGE_CURVE('',#22,#62,#64,.T.);
#62 = VERTEX_POINT('',#63);
#63 = CARTESIAN_POINT('',(10.,-10.,0.));
#64 = LINE('',#65,#66);
#65 = CARTESIAN_POINT('',(-10.,-10.,0.));
#66 = VECTOR('',#67,1.);
#67 = DIRECTION('',(1.,0.,0.));
#68 = ORIENTED_EDGE('',*,*,#21,.T.);
#69 = ORIENTED_EDGE('',*,*,#70,.T.);
#70 = EDGE_CURVE('',#24,#71,#73,.T.);
#71 = VERTEX_POINT('',#72);
#72 = CARTESIAN_POINT('',(10.,-10.,4.7498));
#73 = LINE('',#74,#75);
#74 = CARTESIAN_POINT('',(-10.,-10.,4.7498));
#75 = VECTOR('',#76,1.);
#76 = DIRECTION('',(1.,0.,0.));
#77 = ORIENTED_EDGE('',*,*,#78,.F.);
#78 = EDGE_CURVE('',#62,#71,#79,.T.);
#79 = LINE('',#80,#81);
#80 = CARTESIAN_POINT('',(10.,-10.,0.));
#81 = VECTOR('',#82,1.);
#82 = DIRECTION('',(0.,0.,1.));
#83 = PLANE('',#84);
#84 = AXIS2_PLACEMENT_3D('',#85,#86,#87);
#85 = CARTESIAN_POINT('',(-10.,-10.,0.));
#86 = DIRECTION('',(0.,1.,0.));
#87 = DIRECTION('',(0.,0.,1.));
#88 = ADVANCED_FACE('',(#89,#107),#118,.T.);
#89 = FACE_BOUND('',#90,.T.);
#90 = EDGE_LOOP('',(#91,#92,#93,#101));
#91 = ORIENTED_EDGE('',*,*,#47,.F.);
#92 = ORIENTED_EDGE('',*,*,#70,.T.);
#93 = ORIENTED_EDGE('',*,*,#94,.T.);
#94 = EDGE_CURVE('',#71,#95,#97,.T.);
#95 = VERTEX_POINT('',#96);
#96 = CARTESIAN_POINT('',(10.,10.,4.7498));
#97 = LINE('',#98,#99);
#98 = CARTESIAN_POINT('',(10.,-10.,4.7498));
#99 = VECTOR('',#100,1.);
#100 = DIRECTION('',(0.,1.,0.));
#101 = ORIENTED_EDGE('',*,*,#102,.F.);
#102 = EDGE_CURVE('',#40,#95,#103,.T.);
#103 = LINE('',#104,#105);
#104 = CARTESIAN_POINT('',(-10.,10.,4.7498));
#105 = VECTOR('',#106,1.);
#106 = DIRECTION('',(1.,0.,0.));
#107 = FACE_BOUND('',#108,.T.);
#108 = EDGE_LOOP('',(#109));
#109 = ORIENTED_EDGE('',*,*,#110,.T.);
#110 = EDGE_CURVE('',#111,#111,#113,.T.);
#111 = VERTEX_POINT('',#112);
#112 = CARTESIAN_POINT('',(3.,0.,4.7498));
#113 = CIRCLE('',#114,3.);
#114 = AXIS2_PLACEMENT_3D('',#115,#116,#117);
#115 = CARTESIAN_POINT('',(0.,0.,4.7498));
#116 = DIRECTION('',(0.,0.,-1.));
#117 = DIRECTION('',(1.,0.,0.));
#118 = PLANE('',#119);
#119 = AXIS2_PLACEMENT_3D('',#120,#121,#122);
#120 = CARTESIAN_POINT('',(-10.,-10.,4.7498));
#121 = DIRECTION('',(0.,0.,1.));
#122 = DIRECTION('',(1.,0.,0.));
#123 = ADVANCED_FACE('',(#124),#142,.T.);
#124 = FACE_BOUND('',#125,.T.);
#125 = EDGE_LOOP('',(#126,#134,#135,#136));
#126 = ORIENTED_EDGE('',*,*,#127,.F.);
#127 = EDGE_CURVE('',#32,#128,#130,.T.);
#128 = VERTEX_POINT('',#129);
#129 = CARTESIAN_POINT('',(10.,10.,0.));
#130 = LINE('',#131,#132);
#131 = CARTESIAN_POINT('',(-10.,10.,0.));
#132 = VECTOR('',#133,1.);
#133 = DIRECTION('',(1.,0.,0.));
#134 = ORIENTED_EDGE('',*,*,#39,.T.);
#135 = ORIENTED_EDGE('',*,*,#102,.T.);
#136 = ORIENTED_EDGE('',*,*,#137,.F.);
#137 = EDGE_CURVE('',#128,#95,#138,.T.);
#138 = LINE('',#139,#140);
#139 = CARTESIAN_POINT('',(10.,10.,0.));
#140 = VECTOR('',#141,1.);
#141 = DIRECTION('',(0.,0.,1.));
#142 = PLANE('',#143);
#143 = AXIS2_PLACEMENT_3D('',#144,#145,#146);
#144 = CARTESIAN_POINT('',(-10.,10.,0.));
#145 = DIRECTION('',(0.,1.,0.));
#146 = DIRECTION('',(0.,0.,1.));
#147 = ADVANCED_FACE('',(#148,#159),#170,.F.);
#148 = FACE_BOUND('',#149,.F.);
#149 = EDGE_LOOP('',(#150,#151,#152,#158));
#150 = ORIENTED_EDGE('',*,*,#31,.F.);
#151 = ORIENTED_EDGE('',*,*,#61,.T.);
#152 = ORIENTED_EDGE('',*,*,#153,.T.);
#153 = EDGE_CURVE('',#62,#128,#154,.T.);
#154 = LINE('',#155,#156);
#155 = CARTESIAN_POINT('',(10.,-10.,0.));
#156 = VECTOR('',#157,1.);
#157 = DIRECTION('',(0.,1.,0.));
#158 = ORIENTED_EDGE('',*,*,#127,.F.);
#159 = FACE_BOUND('',#160,.F.);
#160 = EDGE_LOOP('',(#161));
#161 = ORIENTED_EDGE('',*,*,#162,.T.);
#162 = EDGE_CURVE('',#163,#163,#165,.T.);
#163 = VERTEX_POINT('',#164);
#164 = CARTESIAN_POINT('',(3.,0.,0.));
#165 = CIRCLE('',#166,3.);
#166 = AXIS2_PLACEMENT_3D('',#167,#168,#169);
#167 = CARTESIAN_POINT('',(0.,0.,0.));
#168 = DIRECTION('',(0.,0.,-1.));
#169 = DIRECTION('',(1.,0.,0.));
#170 = PLANE('',#171);
#171 = AXIS2_PLACEMENT_3D('',#172,#173,#174);
#172 = CARTESIAN_POINT('',(-10.,-10.,0.));
#173 = DIRECTION('',(0.,0.,1.));
#174 = DIRECTION('',(1.,0.,0.));
#175 = ADVANCED_FACE('',(#176),#203,.T.);
#176 = FACE_BOUND('',#177,.F.);
#177 = EDGE_LOOP('',(#178,#187,#195,#202));
#178 = ORIENTED_EDGE('',*,*,#179,.T.);
#179 = EDGE_CURVE('',#71,#180,#182,.T.);
#180 = VERTEX_POINT('',#181);
#181 = CARTESIAN_POINT('',(11.211543535887,-10.,4.980095870262));
#182 = CIRCLE('',#183,3.302);
#183 = AXIS2_PLACEMENT_3D('',#184,#185,#186);
#184 = CARTESIAN_POINT('',(10.,-10.,8.0518));
#185 = DIRECTION('',(0.,-1.,0.));
#186 = DIRECTION('',(0.,0.,-1.));
#187 = ORIENTED_EDGE('',*,*,#188,.T.);
#188 = EDGE_CURVE('',#180,#189,#191,.T.);
#189 = VERTEX_POINT('',#190);
#190 = CARTESIAN_POINT('',(12.954302314433,-10.,0.5615676221));
#191 = LINE('',#192,#193);
#192 = CARTESIAN_POINT('',(11.211543535887,-10.,4.980095870262));
#193 = VECTOR('',#194,1.);
#194 = DIRECTION('',(0.366912033885,0.,-0.930255641956));
#195 = ORIENTED_EDGE('',*,*,#196,.F.);
#196 = EDGE_CURVE('',#62,#189,#197,.T.);
#197 = CIRCLE('',#198,8.0518);
#198 = AXIS2_PLACEMENT_3D('',#199,#200,#201);
#199 = CARTESIAN_POINT('',(10.,-10.,8.0518));
#200 = DIRECTION('',(0.,-1.,0.));
#201 = DIRECTION('',(0.,0.,-1.));
#202 = ORIENTED_EDGE('',*,*,#78,.T.);
#203 = PLANE('',#204);
#204 = AXIS2_PLACEMENT_3D('',#205,#206,#207);
#205 = CARTESIAN_POINT('',(10.,-10.,8.0518));
#206 = DIRECTION('',(-0.,-1.,-0.));
#207 = DIRECTION('',(-0.,-0.,-1.));
#208 = ADVANCED_FACE('',(#209),#228,.F.);
#209 = FACE_BOUND('',#210,.F.);
#210 = EDGE_LOOP('',(#211,#220,#226,#227));
#211 = ORIENTED_EDGE('',*,*,#212,.T.);
#212 = EDGE_CURVE('',#95,#213,#215,.T.);
#213 = VERTEX_POINT('',#214);
#214 = CARTESIAN_POINT('',(11.211543535887,10.,4.980095870262));
#215 = CIRCLE('',#216,3.302);
#216 = AXIS2_PLACEMENT_3D('',#217,#218,#219);
#217 = CARTESIAN_POINT('',(10.,10.,8.0518));
#218 = DIRECTION('',(0.,-1.,0.));
#219 = DIRECTION('',(0.,0.,-1.));
#220 = ORIENTED_EDGE('',*,*,#221,.T.);
#221 = EDGE_CURVE('',#213,#180,#222,.T.);
#222 = LINE('',#223,#224);
#223 = CARTESIAN_POINT('',(11.211543535887,10.,4.980095870262));
#224 = VECTOR('',#225,1.);
#225 = DIRECTION('',(0.,-1.,0.));
#226 = ORIENTED_EDGE('',*,*,#179,.F.);
#227 = ORIENTED_EDGE('',*,*,#94,.T.);
#228 = CYLINDRICAL_SURFACE('',#229,3.302);
#229 = AXIS2_PLACEMENT_3D('',#230,#231,#232);
#230 = CARTESIAN_POINT('',(10.,10.,8.0518));
#231 = DIRECTION('',(-0.,-1.,-0.));
#232 = DIRECTION('',(0.,0.,-1.));
#233 = ADVANCED_FACE('',(#234),#244,.F.);
#234 = FACE_BOUND('',#235,.T.);
#235 = EDGE_LOOP('',(#236,#237,#242,#243));
#236 = ORIENTED_EDGE('',*,*,#110,.F.);
#237 = ORIENTED_EDGE('',*,*,#238,.T.);
#238 = EDGE_CURVE('',#111,#163,#239,.T.);
#239 = B_SPLINE_CURVE_WITH_KNOTS('',1,(#240,#241),.UNSPECIFIED.,.F.,.F.,
  (2,2),(0.,1.),.PIECEWISE_BEZIER_KNOTS.);
#240 = CARTESIAN_POINT('',(3.,0.,4.7498));
#241 = CARTESIAN_POINT('',(3.,0.,0.));
#242 = ORIENTED_EDGE('',*,*,#162,.T.);
#243 = ORIENTED_EDGE('',*,*,#238,.F.);
#244 = CYLINDRICAL_SURFACE('',#245,3.);
#245 = AXIS2_PLACEMENT_3D('',#246,#247,#248);
#246 = CARTESIAN_POINT('',(0.,0.,4.7498));
#247 = DIRECTION('',(0.,0.,-1.));
#248 = DIRECTION('',(1.,0.,0.));
#249 = ADVANCED_FACE('',(#250),#269,.F.);
#250 = FACE_BOUND('',#251,.F.);
#251 = EDGE_LOOP('',(#252,#261,#267,#268));
#252 = ORIENTED_EDGE('',*,*,#253,.T.);
#253 = EDGE_CURVE('',#128,#254,#256,.T.);
#254 = VERTEX_POINT('',#255);
#255 = CARTESIAN_POINT('',(12.954302314433,10.,0.5615676221));
#256 = CIRCLE('',#257,8.0518);
#257 = AXIS2_PLACEMENT_3D('',#258,#259,#260);
#258 = CARTESIAN_POINT('',(10.,10.,8.0518));
#259 = DIRECTION('',(0.,-1.,0.));
#260 = DIRECTION('',(0.,0.,-1.));
#261 = ORIENTED_EDGE('',*,*,#262,.T.);
#262 = EDGE_CURVE('',#254,#213,#263,.T.);
#263 = LINE('',#264,#265);
#264 = CARTESIAN_POINT('',(12.954302314433,10.,0.5615676221));
#265 = VECTOR('',#266,1.);
#266 = DIRECTION('',(-0.366912033885,0.,0.930255641956));
#267 = ORIENTED_EDGE('',*,*,#212,.F.);
#268 = ORIENTED_EDGE('',*,*,#137,.F.);
#269 = PLANE('',#270);
#270 = AXIS2_PLACEMENT_3D('',#271,#272,#273);
#271 = CARTESIAN_POINT('',(10.,10.,8.0518));
#272 = DIRECTION('',(-0.,-1.,-0.));
#273 = DIRECTION('',(0.,0.,-1.));
#274 = ADVANCED_FACE('',(#275),#286,.T.);
#275 = FACE_BOUND('',#276,.F.);
#276 = EDGE_LOOP('',(#277,#278,#284,#285));
#277 = ORIENTED_EDGE('',*,*,#196,.T.);
#278 = ORIENTED_EDGE('',*,*,#279,.T.);
#279 = EDGE_CURVE('',#189,#254,#280,.T.);
#280 = LINE('',#281,#282);
#281 = CARTESIAN_POINT('',(12.954302314433,-10.,0.5615676221));
#282 = VECTOR('',#283,1.);
#283 = DIRECTION('',(0.,1.,0.));
#284 = ORIENTED_EDGE('',*,*,#253,.F.);
#285 = ORIENTED_EDGE('',*,*,#153,.F.);
#286 = CYLINDRICAL_SURFACE('',#287,8.0518);
#287 = AXIS2_PLACEMENT_3D('',#288,#289,#290);
#288 = CARTESIAN_POINT('',(10.,-10.,8.0518));
#289 = DIRECTION('',(0.,1.,0.));
#290 = DIRECTION('',(0.,0.,-1.));
#291 = ADVANCED_FACE('',(#292),#317,.T.);
#292 = FACE_BOUND('',#293,.T.);
#293 = EDGE_LOOP('',(#294,#295,#303,#311));
#294 = ORIENTED_EDGE('',*,*,#188,.T.);
#295 = ORIENTED_EDGE('',*,*,#296,.T.);
#296 = EDGE_CURVE('',#189,#297,#299,.T.);
#297 = VERTEX_POINT('',#298);
#298 = CARTESIAN_POINT('',(100.84578562205,-10.,35.227783495566));
#299 = LINE('',#300,#301);
#300 = CARTESIAN_POINT('',(12.954302314433,-10.,0.5615676221));
#301 = VECTOR('',#302,1.);
#302 = DIRECTION('',(0.930255641956,0.,0.366912033885));
#303 = ORIENTED_EDGE('',*,*,#304,.F.);
#304 = EDGE_CURVE('',#305,#297,#307,.T.);
#305 = VERTEX_POINT('',#306);
#306 = CARTESIAN_POINT('',(99.103026843511,-10.,39.646311743728));
#307 = LINE('',#308,#309);
#308 = CARTESIAN_POINT('',(99.103026843511,-10.,39.646311743728));
#309 = VECTOR('',#310,1.);
#310 = DIRECTION('',(0.366912033885,0.,-0.930255641956));
#311 = ORIENTED_EDGE('',*,*,#312,.F.);
#312 = EDGE_CURVE('',#180,#305,#313,.T.);
#313 = LINE('',#314,#315);
#314 = CARTESIAN_POINT('',(11.211543535887,-10.,4.980095870262));
#315 = VECTOR('',#316,1.);
#316 = DIRECTION('',(0.930255641956,0.,0.366912033885));
#317 = PLANE('',#318);
#318 = AXIS2_PLACEMENT_3D('',#319,#320,#321);
#319 = CARTESIAN_POINT('',(11.211543535887,-10.,4.980095870262));
#320 = DIRECTION('',(0.,-1.,0.));
#321 = DIRECTION('',(0.930255641956,0.,0.366912033885));
#322 = ADVANCED_FACE('',(#323),#341,.T.);
#323 = FACE_BOUND('',#324,.T.);
#324 = EDGE_LOOP('',(#325,#326,#327,#335));
#325 = ORIENTED_EDGE('',*,*,#221,.T.);
#326 = ORIENTED_EDGE('',*,*,#312,.T.);
#327 = ORIENTED_EDGE('',*,*,#328,.T.);
#328 = EDGE_CURVE('',#305,#329,#331,.T.);
#329 = VERTEX_POINT('',#330);
#330 = CARTESIAN_POINT('',(99.103026843511,10.,39.646311743728));
#331 = LINE('',#332,#333);
#332 = CARTESIAN_POINT('',(99.103026843511,-10.,39.646311743728));
#333 = VECTOR('',#334,1.);
#334 = DIRECTION('',(0.,1.,0.));
#335 = ORIENTED_EDGE('',*,*,#336,.T.);
#336 = EDGE_CURVE('',#329,#213,#337,.T.);
#337 = LINE('',#338,#339);
#338 = CARTESIAN_POINT('',(99.103026843511,10.,39.646311743728));
#339 = VECTOR('',#340,1.);
#340 = DIRECTION('',(-0.930255641956,0.,-0.366912033885));
#341 = PLANE('',#342);
#342 = AXIS2_PLACEMENT_3D('',#343,#344,#345);
#343 = CARTESIAN_POINT('',(55.157285189699,0.,22.313203806995));
#344 = DIRECTION('',(-0.366912033885,0.,0.930255641956));
#345 = DIRECTION('',(0.930255641956,0.,0.366912033885));
#346 = ADVANCED_FACE('',(#347),#365,.T.);
#347 = FACE_BOUND('',#348,.T.);
#348 = EDGE_LOOP('',(#349,#357,#363,#364));
#349 = ORIENTED_EDGE('',*,*,#350,.T.);
#350 = EDGE_CURVE('',#329,#351,#353,.T.);
#351 = VERTEX_POINT('',#352);
#352 = CARTESIAN_POINT('',(100.84578562205,10.,35.227783495566));
#353 = LINE('',#354,#355);
#354 = CARTESIAN_POINT('',(99.103026843511,10.,39.646311743728));
#355 = VECTOR('',#356,1.);
#356 = DIRECTION('',(0.366912033885,0.,-0.930255641956));
#357 = ORIENTED_EDGE('',*,*,#358,.T.);
#358 = EDGE_CURVE('',#351,#254,#359,.T.);
#359 = LINE('',#360,#361);
#360 = CARTESIAN_POINT('',(100.84578562205,10.,35.227783495566));
#361 = VECTOR('',#362,1.);
#362 = DIRECTION('',(-0.930255641956,0.,-0.366912033885));
#363 = ORIENTED_EDGE('',*,*,#262,.T.);
#364 = ORIENTED_EDGE('',*,*,#336,.F.);
#365 = PLANE('',#366);
#366 = AXIS2_PLACEMENT_3D('',#367,#368,#369);
#367 = CARTESIAN_POINT('',(99.103026843511,10.,39.646311743728));
#368 = DIRECTION('',(0.,1.,0.));
#369 = DIRECTION('',(-0.930255641956,0.,-0.366912033885));
#370 = ADVANCED_FACE('',(#371),#382,.F.);
#371 = FACE_BOUND('',#372,.F.);
#372 = EDGE_LOOP('',(#373,#374,#375,#381));
#373 = ORIENTED_EDGE('',*,*,#279,.F.);
#374 = ORIENTED_EDGE('',*,*,#296,.T.);
#375 = ORIENTED_EDGE('',*,*,#376,.T.);
#376 = EDGE_CURVE('',#297,#351,#377,.T.);
#377 = LINE('',#378,#379);
#378 = CARTESIAN_POINT('',(100.84578562205,-10.,35.227783495566));
#379 = VECTOR('',#380,1.);
#380 = DIRECTION('',(0.,1.,0.));
#381 = ORIENTED_EDGE('',*,*,#358,.T.);
#382 = PLANE('',#383);
#383 = AXIS2_PLACEMENT_3D('',#384,#385,#386);
#384 = CARTESIAN_POINT('',(56.900043968245,0.,17.894675558833));
#385 = DIRECTION('',(-0.366912033885,0.,0.930255641956));
#386 = DIRECTION('',(0.930255641956,0.,0.366912033885));
#387 = ADVANCED_FACE('',(#388),#415,.T.);
#388 = FACE_BOUND('',#389,.F.);
#389 = EDGE_LOOP('',(#390,#399,#407,#414));
#390 = ORIENTED_EDGE('',*,*,#391,.T.);
#391 = EDGE_CURVE('',#305,#392,#394,.T.);
#392 = VERTEX_POINT('',#393);
#393 = CARTESIAN_POINT('',(101.19348201995,-10.,42.720931990145));
#394 = CIRCLE('',#395,3.302);
#395 = AXIS2_PLACEMENT_3D('',#396,#397,#398);
#396 = CARTESIAN_POINT('',(97.891483307624,-10.,42.718015873466));
#397 = DIRECTION('',(0.,-1.,0.));
#398 = DIRECTION('',(0.366912033885,0.,-0.930255641956));
#399 = ORIENTED_EDGE('',*,*,#400,.T.);
#400 = EDGE_CURVE('',#392,#401,#403,.T.);
#401 = VERTEX_POINT('',#402);
#402 = CARTESIAN_POINT('',(105.9432801677,-10.,42.72512671183));
#403 = LINE('',#404,#405);
#404 = CARTESIAN_POINT('',(101.19348201995,-10.,42.720931990145));
#405 = VECTOR('',#406,1.);
#406 = DIRECTION('',(0.999999610035,0.,8.831364867137E-04));
#407 = ORIENTED_EDGE('',*,*,#408,.F.);
#408 = EDGE_CURVE('',#297,#401,#409,.T.);
#409 = CIRCLE('',#410,8.0518);
#410 = AXIS2_PLACEMENT_3D('',#411,#412,#413);
#411 = CARTESIAN_POINT('',(97.891483307624,-10.,42.718015873466));
#412 = DIRECTION('',(0.,-1.,0.));
#413 = DIRECTION('',(0.366912033885,0.,-0.930255641956));
#414 = ORIENTED_EDGE('',*,*,#304,.F.);
#415 = PLANE('',#416);
#416 = AXIS2_PLACEMENT_3D('',#417,#418,#419);
#417 = CARTESIAN_POINT('',(97.891483307624,-10.,42.718015873466));
#418 = DIRECTION('',(-0.,-1.,-0.));
#419 = DIRECTION('',(0.366912033885,0.,-0.930255641956));
#420 = ADVANCED_FACE('',(#421),#440,.F.);
#421 = FACE_BOUND('',#422,.F.);
#422 = EDGE_LOOP('',(#423,#432,#438,#439));
#423 = ORIENTED_EDGE('',*,*,#424,.T.);
#424 = EDGE_CURVE('',#329,#425,#427,.T.);
#425 = VERTEX_POINT('',#426);
#426 = CARTESIAN_POINT('',(101.19348201995,10.,42.720931990145));
#427 = CIRCLE('',#428,3.302);
#428 = AXIS2_PLACEMENT_3D('',#429,#430,#431);
#429 = CARTESIAN_POINT('',(97.891483307624,10.,42.718015873466));
#430 = DIRECTION('',(0.,-1.,0.));
#431 = DIRECTION('',(0.366912033885,0.,-0.930255641956));
#432 = ORIENTED_EDGE('',*,*,#433,.T.);
#433 = EDGE_CURVE('',#425,#392,#434,.T.);
#434 = LINE('',#435,#436);
#435 = CARTESIAN_POINT('',(101.19348201995,10.,42.720931990145));
#436 = VECTOR('',#437,1.);
#437 = DIRECTION('',(0.,-1.,0.));
#438 = ORIENTED_EDGE('',*,*,#391,.F.);
#439 = ORIENTED_EDGE('',*,*,#328,.T.);
#440 = CYLINDRICAL_SURFACE('',#441,3.302);
#441 = AXIS2_PLACEMENT_3D('',#442,#443,#444);
#442 = CARTESIAN_POINT('',(97.891483307624,10.,42.718015873466));
#443 = DIRECTION('',(-0.,-1.,-0.));
#444 = DIRECTION('',(0.366912033885,0.,-0.930255641956));
#445 = ADVANCED_FACE('',(#446),#465,.F.);
#446 = FACE_BOUND('',#447,.F.);
#447 = EDGE_LOOP('',(#448,#457,#463,#464));
#448 = ORIENTED_EDGE('',*,*,#449,.T.);
#449 = EDGE_CURVE('',#351,#450,#452,.T.);
#450 = VERTEX_POINT('',#451);
#451 = CARTESIAN_POINT('',(105.9432801677,10.,42.72512671183));
#452 = CIRCLE('',#453,8.0518);
#453 = AXIS2_PLACEMENT_3D('',#454,#455,#456);
#454 = CARTESIAN_POINT('',(97.891483307624,10.,42.718015873466));
#455 = DIRECTION('',(0.,-1.,0.));
#456 = DIRECTION('',(0.366912033885,0.,-0.930255641956));
#457 = ORIENTED_EDGE('',*,*,#458,.T.);
#458 = EDGE_CURVE('',#450,#425,#459,.T.);
#459 = LINE('',#460,#461);
#460 = CARTESIAN_POINT('',(105.9432801677,10.,42.72512671183));
#461 = VECTOR('',#462,1.);
#462 = DIRECTION('',(-0.999999610035,0.,-8.831364867137E-04));
#463 = ORIENTED_EDGE('',*,*,#424,.F.);
#464 = ORIENTED_EDGE('',*,*,#350,.T.);
#465 = PLANE('',#466);
#466 = AXIS2_PLACEMENT_3D('',#467,#468,#469);
#467 = CARTESIAN_POINT('',(97.891483307624,10.,42.718015873466));
#468 = DIRECTION('',(-0.,-1.,-0.));
#469 = DIRECTION('',(0.366912033885,0.,-0.930255641956));
#470 = ADVANCED_FACE('',(#471),#482,.T.);
#471 = FACE_BOUND('',#472,.F.);
#472 = EDGE_LOOP('',(#473,#474,#480,#481));
#473 = ORIENTED_EDGE('',*,*,#408,.T.);
#474 = ORIENTED_EDGE('',*,*,#475,.T.);
#475 = EDGE_CURVE('',#401,#450,#476,.T.);
#476 = LINE('',#477,#478);
#477 = CARTESIAN_POINT('',(105.9432801677,-10.,42.72512671183));
#478 = VECTOR('',#479,1.);
#479 = DIRECTION('',(0.,1.,0.));
#480 = ORIENTED_EDGE('',*,*,#449,.F.);
#481 = ORIENTED_EDGE('',*,*,#376,.F.);
#482 = CYLINDRICAL_SURFACE('',#483,8.0518);
#483 = AXIS2_PLACEMENT_3D('',#484,#485,#486);
#484 = CARTESIAN_POINT('',(97.891483307624,-10.,42.718015873466));
#485 = DIRECTION('',(0.,1.,0.));
#486 = DIRECTION('',(0.366912033885,0.,-0.930255641956));
#487 = ADVANCED_FACE('',(#488),#513,.T.);
#488 = FACE_BOUND('',#489,.T.);
#489 = EDGE_LOOP('',(#490,#491,#499,#507));
#490 = ORIENTED_EDGE('',*,*,#400,.T.);
#491 = ORIENTED_EDGE('',*,*,#492,.T.);
#492 = EDGE_CURVE('',#401,#493,#495,.T.);
#493 = VERTEX_POINT('',#494);
#494 = CARTESIAN_POINT('',(105.92782527918,-10.,60.22511988744));
#495 = LINE('',#496,#497);
#496 = CARTESIAN_POINT('',(105.9432801677,-10.,42.72512671183));
#497 = VECTOR('',#498,1.);
#498 = DIRECTION('',(-8.83136486712E-04,0.,0.999999610035));
#499 = ORIENTED_EDGE('',*,*,#500,.F.);
#500 = EDGE_CURVE('',#501,#493,#503,.T.);
#501 = VERTEX_POINT('',#502);
#502 = CARTESIAN_POINT('',(101.17802713144,-10.,60.220925165756));
#503 = LINE('',#504,#505);
#504 = CARTESIAN_POINT('',(101.17802713144,-10.,60.220925165756));
#505 = VECTOR('',#506,1.);
#506 = DIRECTION('',(0.999999610035,0.,8.831364867137E-04));
#507 = ORIENTED_EDGE('',*,*,#508,.F.);
#508 = EDGE_CURVE('',#392,#501,#509,.T.);
#509 = LINE('',#510,#511);
#510 = CARTESIAN_POINT('',(101.19348201995,-10.,42.720931990145));
#511 = VECTOR('',#512,1.);
#512 = DIRECTION('',(-8.83136486712E-04,0.,0.999999610035));
#513 = PLANE('',#514);
#514 = AXIS2_PLACEMENT_3D('',#515,#516,#517);
#515 = CARTESIAN_POINT('',(101.19348201995,-10.,42.720931990145));
#516 = DIRECTION('',(0.,-1.,0.));
#517 = DIRECTION('',(-8.83136486712E-04,0.,0.999999610035));
#518 = ADVANCED_FACE('',(#519,#537),#548,.T.);
#519 = FACE_BOUND('',#520,.T.);
#520 = EDGE_LOOP('',(#521,#522,#523,#531));
#521 = ORIENTED_EDGE('',*,*,#433,.T.);
#522 = ORIENTED_EDGE('',*,*,#508,.T.);
#523 = ORIENTED_EDGE('',*,*,#524,.T.);
#524 = EDGE_CURVE('',#501,#525,#527,.T.);
#525 = VERTEX_POINT('',#526);
#526 = CARTESIAN_POINT('',(101.17802713144,10.,60.220925165756));
#527 = LINE('',#528,#529);
#528 = CARTESIAN_POINT('',(101.17802713144,-10.,60.220925165756));
#529 = VECTOR('',#530,1.);
#530 = DIRECTION('',(0.,1.,0.));
#531 = ORIENTED_EDGE('',*,*,#532,.T.);
#532 = EDGE_CURVE('',#525,#425,#533,.T.);
#533 = LINE('',#534,#535);
#534 = CARTESIAN_POINT('',(101.17802713144,10.,60.220925165756));
#535 = VECTOR('',#536,1.);
#536 = DIRECTION('',(8.83136486712E-04,0.,-0.999999610035));
#537 = FACE_BOUND('',#538,.T.);
#538 = EDGE_LOOP('',(#539));
#539 = ORIENTED_EDGE('',*,*,#540,.T.);
#540 = EDGE_CURVE('',#541,#541,#543,.T.);
#541 = VERTEX_POINT('',#542);
#542 = CARTESIAN_POINT('',(101.18509879259,3.,52.213489732233));
#543 = CIRCLE('',#544,3.);
#544 = AXIS2_PLACEMENT_3D('',#545,#546,#547);
#545 = CARTESIAN_POINT('',(101.18509879259,6.318914826965E-15,
    52.213489732233));
#546 = DIRECTION('',(0.999999610035,-1.109242113215E-16,
    8.831364867119E-04));
#547 = DIRECTION('',(1.110223024625E-16,1.,-1.110223024625E-16));
#548 = PLANE('',#549);
#549 = AXIS2_PLACEMENT_3D('',#550,#551,#552);
#550 = CARTESIAN_POINT('',(101.1857545757,0.,51.47092857795));
#551 = DIRECTION('',(-0.999999610035,0.,-8.83136486712E-04));
#552 = DIRECTION('',(-8.83136486712E-04,0.,0.999999610035));
#553 = ADVANCED_FACE('',(#554),#572,.T.);
#554 = FACE_BOUND('',#555,.T.);
#555 = EDGE_LOOP('',(#556,#564,#570,#571));
#556 = ORIENTED_EDGE('',*,*,#557,.T.);
#557 = EDGE_CURVE('',#525,#558,#560,.T.);
#558 = VERTEX_POINT('',#559);
#559 = CARTESIAN_POINT('',(105.92782527918,10.,60.22511988744));
#560 = LINE('',#561,#562);
#561 = CARTESIAN_POINT('',(101.17802713144,10.,60.220925165756));
#562 = VECTOR('',#563,1.);
#563 = DIRECTION('',(0.999999610035,0.,8.831364867137E-04));
#564 = ORIENTED_EDGE('',*,*,#565,.T.);
#565 = EDGE_CURVE('',#558,#450,#566,.T.);
#566 = LINE('',#567,#568);
#567 = CARTESIAN_POINT('',(105.92782527918,10.,60.22511988744));
#568 = VECTOR('',#569,1.);
#569 = DIRECTION('',(8.83136486712E-04,0.,-0.999999610035));
#570 = ORIENTED_EDGE('',*,*,#458,.T.);
#571 = ORIENTED_EDGE('',*,*,#532,.F.);
#572 = PLANE('',#573);
#573 = AXIS2_PLACEMENT_3D('',#574,#575,#576);
#574 = CARTESIAN_POINT('',(101.17802713144,10.,60.220925165756));
#575 = DIRECTION('',(0.,1.,0.));
#576 = DIRECTION('',(8.83136486712E-04,0.,-0.999999610035));
#577 = ADVANCED_FACE('',(#578,#589),#600,.F.);
#578 = FACE_BOUND('',#579,.F.);
#579 = EDGE_LOOP('',(#580,#581,#582,#588));
#580 = ORIENTED_EDGE('',*,*,#475,.F.);
#581 = ORIENTED_EDGE('',*,*,#492,.T.);
#582 = ORIENTED_EDGE('',*,*,#583,.T.);
#583 = EDGE_CURVE('',#493,#558,#584,.T.);
#584 = LINE('',#585,#586);
#585 = CARTESIAN_POINT('',(105.92782527918,-10.,60.22511988744));
#586 = VECTOR('',#587,1.);
#587 = DIRECTION('',(0.,1.,0.));
#588 = ORIENTED_EDGE('',*,*,#565,.T.);
#589 = FACE_BOUND('',#590,.F.);
#590 = EDGE_LOOP('',(#591));
#591 = ORIENTED_EDGE('',*,*,#592,.T.);
#592 = EDGE_CURVE('',#593,#593,#595,.T.);
#593 = VERTEX_POINT('',#594);
#594 = CARTESIAN_POINT('',(105.93489694033,3.,52.217684453918));
#595 = CIRCLE('',#596,3.);
#596 = AXIS2_PLACEMENT_3D('',#597,#598,#599);
#597 = CARTESIAN_POINT('',(105.93489694033,6.318914826965E-15,
    52.217684453918));
#598 = DIRECTION('',(0.999999610035,3.490748024202E-34,8.83136486712E-04
    ));
#599 = DIRECTION('',(9.813439753855E-20,1.,-1.111202636808E-16));
#600 = PLANE('',#601);
#601 = AXIS2_PLACEMENT_3D('',#602,#603,#604);
#602 = CARTESIAN_POINT('',(105.93555272344,0.,51.475123299635));
#603 = DIRECTION('',(-0.999999610035,0.,-8.83136486712E-04));
#604 = DIRECTION('',(-8.83136486712E-04,0.,0.999999610035));
#605 = ADVANCED_FACE('',(#606),#612,.T.);
#606 = FACE_BOUND('',#607,.T.);
#607 = EDGE_LOOP('',(#608,#609,#610,#611));
#608 = ORIENTED_EDGE('',*,*,#500,.T.);
#609 = ORIENTED_EDGE('',*,*,#583,.T.);
#610 = ORIENTED_EDGE('',*,*,#557,.F.);
#611 = ORIENTED_EDGE('',*,*,#524,.F.);
#612 = PLANE('',#613);
#613 = AXIS2_PLACEMENT_3D('',#614,#615,#616);
#614 = CARTESIAN_POINT('',(101.17802713144,-10.,60.220925165756));
#615 = DIRECTION('',(-8.831364867137E-04,0.,0.999999610035));
#616 = DIRECTION('',(0.,1.,0.));
#617 = ADVANCED_FACE('',(#618),#628,.F.);
#618 = FACE_BOUND('',#619,.T.);
#619 = EDGE_LOOP('',(#620,#621,#626,#627));
#620 = ORIENTED_EDGE('',*,*,#540,.F.);
#621 = ORIENTED_EDGE('',*,*,#622,.T.);
#622 = EDGE_CURVE('',#541,#593,#623,.T.);
#623 = B_SPLINE_CURVE_WITH_KNOTS('',1,(#624,#625),.UNSPECIFIED.,.F.,.F.,
  (2,2),(0.,1.),.PIECEWISE_BEZIER_KNOTS.);
#624 = CARTESIAN_POINT('',(101.18509879259,3.,52.213489732233));
#625 = CARTESIAN_POINT('',(105.93489694033,3.,52.217684453918));
#626 = ORIENTED_EDGE('',*,*,#592,.T.);
#627 = ORIENTED_EDGE('',*,*,#622,.F.);
#628 = CYLINDRICAL_SURFACE('',#629,3.);
#629 = AXIS2_PLACEMENT_3D('',#630,#631,#632);
#630 = CARTESIAN_POINT('',(101.18509879259,6.318914826965E-15,
    52.213489732233));
#631 = DIRECTION('',(0.999999610035,-1.109242113215E-16,
    8.831364867119E-04));
#632 = DIRECTION('',(1.110223024625E-16,1.,-1.110223024625E-16));
#633 = ( GEOMETRIC_REPRESENTATION_CONTEXT(3) 
GLOBAL_UNCERTAINTY_ASSIGNED_CONTEXT((#637)) GLOBAL_UNIT_ASSIGNED_CONTEXT
((#634,#635,#636)) REPRESENTATION_CONTEXT('Context #1',
  '3D Context with UNIT and UNCERTAINTY') );
#634 = ( LENGTH_UNIT() NAMED_UNIT(*) SI_UNIT(.MILLI.,.METRE.) );
#635 = ( NAMED_UNIT(*) PLANE_ANGLE_UNIT() SI_UNIT($,.RADIAN.) );
#636 = ( NAMED_UNIT(*) SI_UNIT($,.STERADIAN.) SOLID_ANGLE_UNIT() );
#637 = UNCERTAINTY_MEASURE_WITH_UNIT(LENGTH_MEASURE(1.E-07),#634,
  'distance_accuracy_value','confusion accuracy');
#638 = PRODUCT_RELATED_PRODUCT_CATEGORY('part',$,(#7));
#639 = MECHANICAL_DESIGN_GEOMETRIC_PRESENTATION_REPRESENTATION('',(#640)
  ,#633);
#640 = STYLED_ITEM('color',(#641),#15);
#641 = PRESENTATION_STYLE_ASSIGNMENT((#642,#648));
#642 = SURFACE_STYLE_USAGE(.BOTH.,#643);
#643 = SURFACE_SIDE_STYLE('',(#644));
#644 = SURFACE_STYLE_FILL_AREA(#645);
#645 = FILL_AREA_STYLE('',(#646));
#646 = FILL_AREA_STYLE_COLOUR('',#647);
#647 = COLOUR_RGB('',0.678431390124,0.399999997426,0.756862767111);
#648 = CURVE_STYLE('',#649,POSITIVE_LENGTH_MEASURE(0.1),#650);
#649 = DRAUGHTING_PRE_DEFINED_CURVE_FONT('continuous');
#650 = COLOUR_RGB('',9.803921802644E-02,9.803921802644E-02,
  9.803921802644E-02);
ENDSEC;
END-ISO-10303-21;
